<?xml version="1.0" encoding="utf-8"?>
<!-- Generator: Adobe Illustrator 25.0.0, SVG Export Plug-In . SVG Version: 6.00 Build 0)  -->
<svg version="1.1" id="Layer_1" xmlns="http://www.w3.org/2000/svg" xmlns:xlink="http://www.w3.org/1999/xlink" x="0px" y="0px"
	 viewBox="0 0 3300 2200" style="enable-background:new 0 0 3300 2200;" xml:space="preserve">
<style type="text/css">
	.st0{fill:#FFFFFF;}
	.st1{fill:none;stroke:#000000;stroke-width:0.5;}
	.st2{enable-background:new    ;}
	.st3{font-family:'MyriadPro-Regular';}
	.st4{font-size:12px;}
	.st5{font-family:'ArialHebrew-Bold';}
	.st6{font-family:'ArialHebrew';}
	.st7{fill:none;stroke:#00AEEF;stroke-width:0.5;}
	.st8{fill:#27AAE1;}
	.st9{fill:none;stroke:#27AAE1;stroke-width:0.5;}
</style>
<g id="Notes">
	<rect id="artboard" class="st0" width="3300" height="2200"/>
	<line class="st1" x1="263" y1="292" x2="3036" y2="292"/>
	<text transform="matrix(1 0 0 1 263 322)" class="st2"><tspan x="0" y="0" class="st3 st4">Weight</tspan><tspan x="36.3" y="0" class="st5 st4">/</tspan><tspan x="40.2" y="0" class="st3 st4">Scale</tspan><tspan x="66.1" y="0" class="st5 st4"> </tspan><tspan x="69.5" y="0" class="st3 st4">Variations</tspan></text>
	<text transform="matrix(1 0 0 1 514.711 322)" class="st3 st4">Ultralight</text>
	<text transform="matrix(1 0 0 1 838.422 322)" class="st3 st4">Thin</text>
	<text transform="matrix(1 0 0 1 1130.63 322)" class="st3 st4">Light</text>
	<text transform="matrix(1 0 0 1 1418.34 322)" class="st3 st4">Regular</text>
	<text transform="matrix(1 0 0 1 1719.5601 322)" class="st3 st4">Medium</text>
	<text transform="matrix(1 0 0 1 2007.27 322)" class="st3 st4">Semibold</text>
	<text transform="matrix(1 0 0 1 2321.98 322)" class="st3 st4">Bold</text>
	<text transform="matrix(1 0 0 1 2614.1899 322)" class="st3 st4">Heavy</text>
	<text transform="matrix(1 0 0 1 2910.8999 322)" class="st3 st4">Black</text>
	<line class="st1" x1="263" y1="1903" x2="3036" y2="1903"/>
	<g transform="matrix(1 0 0 1 263 1933)">
		<path d="M9.2,0.8c4.3,0,7.9-3.6,7.9-7.9c0-4.3-3.6-7.9-7.9-7.9c-4.3,0-7.9,3.6-7.9,7.9C1.4-2.7,5,0.8,9.2,0.8z M9.2-0.7
			c-3.5,0-6.4-2.8-6.4-6.4c0-3.6,2.8-6.4,6.4-6.4c3.6,0,6.4,2.8,6.4,6.4C15.7-3.5,12.8-0.7,9.2-0.7z M9.2-3.6c0.5,0,0.7-0.3,0.7-0.8
			v-1.9h2c0.5,0,0.8-0.3,0.8-0.7c0-0.5-0.3-0.7-0.8-0.7h-2v-2c0-0.5-0.3-0.8-0.7-0.8s-0.7,0.3-0.7,0.8v2h-2C6-7.8,5.6-7.5,5.6-7
			c0,0.5,0.4,0.7,0.8,0.7h2v1.9C8.5-4,8.8-3.6,9.2-3.6z"/>
	</g>
	<g transform="matrix(1 0 0 1 281.506 1933)">
		<path d="M11.7,2.9c5.4,0,10-4.5,10-10c0-5.4-4.5-10-10-10c-5.4,0-10,4.5-10,10C1.7-1.6,6.3,2.9,11.7,2.9z M11.7,1.2
			c-4.6,0-8.3-3.7-8.3-8.3c0-4.6,3.7-8.3,8.3-8.3c4.6,0,8.3,3.7,8.3,8.3C20-2.4,16.3,1.2,11.7,1.2z M11.7-2.7c0.5,0,0.8-0.4,0.8-0.9
			v-2.6h2.8c0.5,0,0.9-0.3,0.9-0.8c0-0.5-0.4-0.8-0.9-0.8h-2.8v-2.8c0-0.6-0.3-0.9-0.8-0.9c-0.5,0-0.8,0.4-0.8,0.9v2.8H8.1
			C7.5-7.9,7.1-7.6,7.1-7c0,0.5,0.4,0.8,0.9,0.8h2.8v2.6C10.9-3,11.2-2.7,11.7-2.7z"/>
	</g>
	<g transform="matrix(1 0 0 1 304.924 1933)">
		<path d="M15,5.7c7,0,12.7-5.8,12.7-12.7c0-7-5.8-12.7-12.7-12.7C8-19.8,2.3-14,2.3-7.1C2.3-0.1,8,5.7,15,5.7z M15,3.8
			C8.9,3.8,4.1-1,4.1-7.1c0-6,4.8-10.9,10.9-10.9c6,0,10.9,4.9,10.9,10.9C25.9-1,21,3.8,15,3.8z M14.9-1.4c0.6,0,0.9-0.4,0.9-1v-3.8
			h3.9c0.6,0,1-0.3,1-0.9c0-0.6-0.4-0.9-1-0.9h-3.9v-3.9c0-0.6-0.3-1-0.9-1c-0.6,0-0.9,0.4-0.9,1v3.9h-3.9c-0.6,0-1,0.3-1,0.9
			c0,0.6,0.4,0.9,1,0.9h3.9v3.8C14.1-1.8,14.4-1.4,14.9-1.4z"/>
	</g>
	<text transform="matrix(1 0 0 1 263 1953)" class="st2"><tspan x="0" y="0" class="st3 st4">Design</tspan><tspan x="34.9" y="0" class="st5 st4"> </tspan><tspan x="38.3" y="0" class="st3 st4">Variations</tspan></text>
	<text transform="matrix(1 0 0 1 263 1971)" class="st2"><tspan x="0" y="0" class="st3 st4">Symbols</tspan><tspan x="42.6" y="0" class="st6 st4"> </tspan><tspan x="45.9" y="0" class="st3 st4">are</tspan><tspan x="61.6" y="0" class="st6 st4"> </tspan><tspan x="65" y="0" class="st3 st4">supported</tspan><tspan x="117.3" y="0" class="st6 st4"> </tspan><tspan x="120.6" y="0" class="st3 st4">in</tspan><tspan x="130.1" y="0" class="st6 st4"> </tspan><tspan x="133.4" y="0" class="st3 st4">up</tspan><tspan x="146.8" y="0" class="st6 st4"> </tspan><tspan x="150.2" y="0" class="st3 st4">to</tspan><tspan x="160.7" y="0" class="st6 st4"> </tspan><tspan x="164.1" y="0" class="st3 st4">nine</tspan><tspan x="186.2" y="0" class="st6 st4"> </tspan><tspan x="189.5" y="0" class="st3 st4">weights</tspan><tspan x="229.3" y="0" class="st6 st4"> </tspan><tspan x="232.6" y="0" class="st3 st4">and</tspan><tspan x="251.8" y="0" class="st6 st4"> </tspan><tspan x="255.2" y="0" class="st3 st4">three</tspan><tspan x="281.7" y="0" class="st6 st4"> </tspan><tspan x="285.1" y="0" class="st3 st4">scales</tspan><tspan x="314.6" y="0" class="st6 st4">.</tspan></text>
	<text transform="matrix(1 0 0 1 263 1989)" class="st2"><tspan x="0" y="0" class="st3 st4">For</tspan><tspan x="16.4" y="0" class="st6 st4"> </tspan><tspan x="19.7" y="0" class="st3 st4">optimal</tspan><tspan x="58.5" y="0" class="st6 st4"> </tspan><tspan x="61.8" y="0" class="st3 st4">layout</tspan><tspan x="93.3" y="0" class="st6 st4"> </tspan><tspan x="96.6" y="0" class="st3 st4">with</tspan><tspan x="118.9" y="0" class="st6 st4"> </tspan><tspan x="122.2" y="0" class="st3 st4">text</tspan><tspan x="141.7" y="0" class="st6 st4"> </tspan><tspan x="145.1" y="0" class="st3 st4">and</tspan><tspan x="164.3" y="0" class="st6 st4"> </tspan><tspan x="167.6" y="0" class="st3 st4">other</tspan><tspan x="194.8" y="0" class="st6 st4"> </tspan><tspan x="198.1" y="0" class="st3 st4">symbols</tspan><tspan x="239.5" y="0" class="st6 st4">, </tspan><tspan x="245.4" y="0" class="st3 st4">vertically</tspan><tspan x="290.4" y="0" class="st6 st4"> </tspan><tspan x="293.7" y="0" class="st3 st4">align</tspan></text>
	<text transform="matrix(1 0 0 1 263 2007)" class="st2"><tspan x="0" y="0" class="st3 st4">symbols</tspan><tspan x="41.4" y="0" class="st6 st4"> </tspan><tspan x="44.7" y="0" class="st3 st4">with</tspan><tspan x="67" y="0" class="st6 st4"> </tspan><tspan x="70.4" y="0" class="st3 st4">the</tspan><tspan x="87" y="0" class="st6 st4"> </tspan><tspan x="90.3" y="0" class="st3 st4">adjacent</tspan><tspan x="133.6" y="0" class="st6 st4"> </tspan><tspan x="136.9" y="0" class="st3 st4">text</tspan><tspan x="156.5" y="0" class="st6 st4">.</tspan></text>
	<line class="st7" x1="776" y1="1919" x2="776" y2="1933"/>
	<g transform="matrix(1 0 0 1 776 1933)">
		<path d="M3.3,0.1c0.5,0,0.8-0.2,1-0.7l1.3-3.5h5.8l1.3,3.5c0.2,0.5,0.4,0.7,0.9,0.7c0.5,0,0.8-0.3,0.8-0.8c0-0.2,0-0.3-0.1-0.5
			L9.7-13.4C9.4-14,9-14.3,8.4-14.3c-0.6,0-1,0.3-1.2,0.9L2.6-1.2C2.5-1,2.5-0.8,2.5-0.7C2.5-0.2,2.8,0.1,3.3,0.1z M6-5.5l2.4-6.6h0
			l2.4,6.6H6z"/>
	</g>
	<line class="st7" x1="792.8" y1="1919" x2="792.8" y2="1933"/>
	<text transform="matrix(1 0 0 1 776 1953)" class="st3 st4">Margins</text>
	<text transform="matrix(1 0 0 1 776 1971)" class="st2"><tspan x="0" y="0" class="st3 st4">Leading</tspan><tspan x="40.4" y="0" class="st6 st4"> </tspan><tspan x="43.7" y="0" class="st3 st4">and</tspan><tspan x="63" y="0" class="st6 st4"> </tspan><tspan x="66.3" y="0" class="st3 st4">trailing</tspan><tspan x="101.8" y="0" class="st6 st4"> </tspan><tspan x="105.1" y="0" class="st3 st4">margins</tspan><tspan x="145.8" y="0" class="st6 st4"> </tspan><tspan x="149.1" y="0" class="st3 st4">on</tspan><tspan x="162.3" y="0" class="st6 st4"> </tspan><tspan x="165.7" y="0" class="st3 st4">the</tspan><tspan x="182.3" y="0" class="st6 st4"> </tspan><tspan x="185.7" y="0" class="st3 st4">left</tspan><tspan x="202" y="0" class="st6 st4"> </tspan><tspan x="205.3" y="0" class="st3 st4">and</tspan><tspan x="224.5" y="0" class="st6 st4"> </tspan><tspan x="227.9" y="0" class="st3 st4">right</tspan><tspan x="251.9" y="0" class="st6 st4"> </tspan><tspan x="255.3" y="0" class="st3 st4">side</tspan><tspan x="275.6" y="0" class="st6 st4"> </tspan><tspan x="278.9" y="0" class="st3 st4">of</tspan><tspan x="289" y="0" class="st6 st4"> </tspan><tspan x="292.4" y="0" class="st3 st4">each</tspan><tspan x="316.2" y="0" class="st6 st4"> </tspan><tspan x="319.5" y="0" class="st3 st4">symbol</tspan></text>
	<text transform="matrix(1 0 0 1 776 1989)" class="st2"><tspan x="0" y="0" class="st3 st4">can</tspan><tspan x="17.8" y="0" class="st6 st4"> </tspan><tspan x="21.2" y="0" class="st3 st4">be</tspan><tspan x="34" y="0" class="st6 st4"> </tspan><tspan x="37.3" y="0" class="st3 st4">adjusted</tspan><tspan x="80.9" y="0" class="st6 st4"> </tspan><tspan x="84.3" y="0" class="st3 st4">by</tspan><tspan x="96.7" y="0" class="st6 st4"> </tspan><tspan x="100.1" y="0" class="st3 st4">modifying</tspan><tspan x="151.6" y="0" class="st6 st4"> </tspan><tspan x="154.9" y="0" class="st3 st4">the</tspan><tspan x="171.5" y="0" class="st6 st4"> </tspan><tspan x="174.9" y="0" class="st3 st4">x</tspan><tspan x="180.4" y="0" class="st6 st4">-</tspan><tspan x="184.6" y="0" class="st3 st4">location</tspan><tspan x="225.2" y="0" class="st6 st4"> </tspan><tspan x="228.6" y="0" class="st3 st4">of</tspan><tspan x="238.7" y="0" class="st6 st4"> </tspan><tspan x="242" y="0" class="st3 st4">the</tspan><tspan x="258.6" y="0" class="st6 st4"> </tspan><tspan x="262" y="0" class="st3 st4">margin</tspan><tspan x="297.9" y="0" class="st6 st4"> </tspan><tspan x="301.2" y="0" class="st3 st4">guidelines</tspan><tspan x="353.2" y="0" class="st6 st4">.</tspan></text>
	<text transform="matrix(1 0 0 1 776 2007)" class="st2"><tspan x="0" y="0" class="st3 st4">Modifications</tspan><tspan x="68" y="0" class="st6 st4"> </tspan><tspan x="71.4" y="0" class="st3 st4">are</tspan><tspan x="87.1" y="0" class="st6 st4"> </tspan><tspan x="90.4" y="0" class="st3 st4">automatically</tspan><tspan x="158.4" y="0" class="st6 st4"> </tspan><tspan x="161.8" y="0" class="st3 st4">applied</tspan><tspan x="199.6" y="0" class="st6 st4"> </tspan><tspan x="203" y="0" class="st3 st4">proportionally</tspan><tspan x="274.8" y="0" class="st6 st4"> </tspan><tspan x="278.1" y="0" class="st3 st4">to</tspan><tspan x="288.7" y="0" class="st6 st4"> </tspan><tspan x="292" y="0" class="st3 st4">all</tspan></text>
	<text transform="matrix(1 0 0 1 776 2025)" class="st2"><tspan x="0" y="0" class="st3 st4">scales</tspan><tspan x="29.5" y="0" class="st6 st4"> </tspan><tspan x="32.8" y="0" class="st3 st4">and</tspan><tspan x="52.1" y="0" class="st6 st4"> </tspan><tspan x="55.4" y="0" class="st3 st4">weights</tspan><tspan x="95.1" y="0" class="st6 st4">.</tspan></text>
	<g transform="matrix(1 0 0 1 1289 1933)">
		<path d="M2.8,1.9l1.7,1.7c0.9,0.9,1.8,0.8,2.8-0.2L17.5-7.9c0.3,0.1,0.5,0.1,0.8,0L19.4-8l0.7,0.7l0,0.6c0,0.5,0.1,0.9,0.6,1.4
			l0.8,0.7c0.5,0.5,1.1,0.5,1.6,0l2.9-2.9c0.5-0.5,0.4-1.1,0-1.5L25-9.9c-0.5-0.5-0.8-0.6-1.3-0.6l-0.6,0l-0.6-0.6l0.2-1.1
			c0.1-0.6,0-1-0.6-1.6L19.9-16c-3.3-3.3-7.8-3.2-10.7-0.4c-0.4,0.4-0.4,1-0.2,1.4c0.2,0.4,0.7,0.6,1.3,0.4c1.5-0.3,3-0.4,4.4,0.5
			l-0.6,1.5c-0.2,0.5-0.2,0.9-0.1,1.2L3-0.9C2.1,0,2,1,2.8,1.9z M10.8-16c2.4-1.8,5.7-1.5,7.9,0.8l2.4,2.4c0.2,0.2,0.3,0.4,0.2,0.8
			L21-10.5l1.5,1.5l1-0.1c0.3,0,0.3,0,0.5,0.2l0.6,0.6l-2.4,2.4l-0.6-0.6c-0.2-0.2-0.2-0.3-0.2-0.5l0.1-1L20-9.5l-1.5,0.3
			c-0.3,0.1-0.5,0-0.7-0.2l-2-2c-0.3-0.2-0.3-0.4-0.1-0.8l0.9-2.1c-1.6-1.5-3.6-2.1-5.6-1.5C10.7-15.7,10.6-15.8,10.8-16z M5.3,2.3
			L4.1,1.1C3.6,0.7,3.7,0.3,4.1,0L15-10.2l1.5,1.5l-10,11C6.1,2.7,5.7,2.8,5.3,2.3z"/>
	</g>
	<text transform="matrix(1 0 0 1 1289 1953)" class="st3 st4">Exporting</text>
	<text transform="matrix(1 0 0 1 1289 1971)" class="st2"><tspan x="0" y="0" class="st3 st4">Symbols</tspan><tspan x="42.6" y="0" class="st6 st4"> </tspan><tspan x="45.9" y="0" class="st3 st4">should</tspan><tspan x="80.1" y="0" class="st6 st4"> </tspan><tspan x="83.5" y="0" class="st3 st4">be</tspan><tspan x="96.3" y="0" class="st6 st4"> </tspan><tspan x="99.6" y="0" class="st3 st4">outlined</tspan><tspan x="141.9" y="0" class="st6 st4"> </tspan><tspan x="145.2" y="0" class="st3 st4">when</tspan><tspan x="173.4" y="0" class="st6 st4"> </tspan><tspan x="176.7" y="0" class="st3 st4">exporting</tspan><tspan x="225.8" y="0" class="st6 st4"> </tspan><tspan x="229.1" y="0" class="st3 st4">to</tspan><tspan x="239.7" y="0" class="st6 st4"> </tspan><tspan x="243" y="0" class="st3 st4">ensure</tspan><tspan x="277" y="0" class="st6 st4"> </tspan><tspan x="280.3" y="0" class="st3 st4">the</tspan></text>
	<text transform="matrix(1 0 0 1 1289 1989)" class="st2"><tspan x="0" y="0" class="st3 st4">design</tspan><tspan x="33.7" y="0" class="st6 st4"> </tspan><tspan x="37" y="0" class="st3 st4">is</tspan><tspan x="44.6" y="0" class="st6 st4"> </tspan><tspan x="47.9" y="0" class="st3 st4">preserved</tspan><tspan x="97.9" y="0" class="st6 st4"> </tspan><tspan x="101.3" y="0" class="st3 st4">when</tspan><tspan x="129.4" y="0" class="st6 st4"> </tspan><tspan x="132.8" y="0" class="st3 st4">submitting</tspan><tspan x="187.9" y="0" class="st6 st4"> </tspan><tspan x="191.2" y="0" class="st3 st4">to</tspan><tspan x="201.8" y="0" class="st6 st4"> </tspan><tspan x="205.1" y="0" class="st3 st4">Xcode</tspan><tspan x="236.7" y="0" class="st6 st4">.</tspan></text>
	<text id="template-version" transform="matrix(1 0 0 1 2934.9604 1933)" class="st2"><tspan x="0" y="0" class="st3 st4">Template</tspan><tspan x="47.4" y="0" class="st6 st4"> </tspan><tspan x="50.7" y="0" class="st3 st4">v</tspan><tspan x="56.5" y="0" class="st6 st4">.2.0</tspan></text>
	<text transform="matrix(1 0 0 1 2812.9443 1951)" class="st2"><tspan x="0" y="0" class="st3 st4">Requires</tspan><tspan x="43.3" y="0" class="st6 st4"> </tspan><tspan x="46.7" y="0" class="st3 st4">Xcode</tspan><tspan x="78.3" y="0" class="st6 st4"> 12 </tspan><tspan x="96.6" y="0" class="st3 st4">or</tspan><tspan x="107.2" y="0" class="st6 st4"> </tspan><tspan x="110.5" y="0" class="st3 st4">greater</tspan></text>
	<text transform="matrix(1 0 0 1 2804.3281 1969)" class="st2"><tspan x="0" y="0" class="st3 st4">Generated</tspan><tspan x="52.9" y="0" class="st6 st4"> </tspan><tspan x="56.2" y="0" class="st3 st4">from</tspan><tspan x="80.3" y="0" class="st6 st4"> </tspan><tspan x="83.6" y="0" class="st3 st4">paintpalette</tspan></text>
	<text transform="matrix(1 0 0 1 2873.4243 1987)" class="st2"><tspan x="0" y="0" class="st3 st4">Typeset</tspan><tspan x="39.2" y="0" class="st6 st4"> </tspan><tspan x="42.5" y="0" class="st3 st4">at</tspan><tspan x="52.3" y="0" class="st6 st4"> 100 </tspan><tspan x="76.5" y="0" class="st3 st4">points</tspan></text>
	<text transform="matrix(1 0 0 1 263 726)" class="st3 st4">Small</text>
	<text transform="matrix(1 0 0 1 263 1156)" class="st3 st4">Medium</text>
	<text transform="matrix(1 0 0 1 263 1586)" class="st3 st4">Large</text>
</g>
<g id="Guides">
	<g id="H-reference" transform="matrix(1 0 0 1 339 696)">
		<path class="st8" d="M1,0h2.7L13-24.5h32.7L55.1,0h2.6L30.6-70.5h-2.5L1,0z M29.3-67.1L29.3-67.1l15.6,40.4h-31L29.3-67.1z"/>
	</g>
	<line id="Baseline-S" class="st9" x1="263" y1="696" x2="3036" y2="696"/>
	<line id="Capline-S" class="st9" x1="263" y1="625.5" x2="3036" y2="625.5"/>
	<g id="H-reference_1_" transform="matrix(1 0 0 1 339 1126)">
		<path class="st8" d="M1,0h2.7L13-24.5h32.7L55.1,0h2.6L30.6-70.5h-2.5L1,0z M29.3-67.1L29.3-67.1l15.6,40.4h-31L29.3-67.1z"/>
	</g>
	<line id="Baseline-M" class="st9" x1="263" y1="1126" x2="3036" y2="1126"/>
	<line id="Capline-M" class="st9" x1="263" y1="1055.5" x2="3036" y2="1055.5"/>
	<g id="H-reference_2_" transform="matrix(1 0 0 1 339 1556)">
		<path class="st8" d="M1,0h2.7L13-24.5h32.7L55.1,0h2.6L30.6-70.5h-2.5L1,0z M29.3-67.1L29.3-67.1l15.6,40.4h-31L29.3-67.1z"/>
	</g>
	<line id="Baseline-L" class="st9" x1="263" y1="1556" x2="3036" y2="1556"/>
	<line id="Capline-L" class="st9" x1="263" y1="1485.5" x2="3036" y2="1485.5"/>
	<line id="left-margin" class="st7" x1="1382.3" y1="1030.8" x2="1382.3" y2="1150.1"/>
	<line id="right-margin" class="st7" x1="1517.4" y1="1030.8" x2="1517.4" y2="1150.1"/>
</g>
<g id="Symbols">
	<g id="Black-L" transform="matrix(1 0 0 1 2836.67 1556)">
		<path d="M54.4-47.5c-5.7,0-10.4,4.6-10.4,10.4c0,5.7,4.7,10.5,10.4,10.5c5.7,0,10.3-4.8,10.3-10.5C64.7-42.8,60-47.5,54.4-47.5z
			 M132.6-68.4c-4.7,0-8.6,3.8-8.6,8.5c0,4.8,3.8,8.5,8.6,8.5c4.7,0,8.5-3.7,8.5-8.5C141.1-64.6,137.3-68.4,132.6-68.4z M75.8-70.8
			c-7,0-12.6,5.5-12.6,12.4c0,7,5.6,12.5,12.6,12.5c6.8,0,12.5-5.5,12.5-12.5C88.3-65.4,82.7-70.8,75.8-70.8z M105.8-75.9
			c-5.7,0-10.4,4.6-10.4,10.3c0,5.7,4.7,10.3,10.4,10.3c5.7,0,10.3-4.6,10.3-10.3C116.1-71.3,111.5-75.9,105.8-75.9z M132.6-68.4
			c-4.7,0-8.6,3.8-8.6,8.5c0,4.8,3.8,8.5,8.6,8.5c4.7,0,8.5-3.7,8.5-8.5C141.1-64.6,137.3-68.4,132.6-68.4z M105.8-75.9
			c-5.7,0-10.4,4.6-10.4,10.3c0,5.7,4.7,10.3,10.4,10.3c5.7,0,10.3-4.6,10.3-10.3C116.1-71.3,111.5-75.9,105.8-75.9z M75.8-70.8
			c-7,0-12.6,5.5-12.6,12.4c0,7,5.6,12.5,12.6,12.5c6.8,0,12.5-5.5,12.5-12.5C88.3-65.4,82.7-70.8,75.8-70.8z M54.4-47.5
			c-5.7,0-10.4,4.6-10.4,10.4c0,5.7,4.7,10.5,10.4,10.5c5.7,0,10.3-4.8,10.3-10.5C64.7-42.8,60-47.5,54.4-47.5z M182.2-58.5
			c0-29.3-30.3-48.7-75.6-48.7c-57.1,0-95.3,30.2-95.3,72.5C11.3,7.7,47.6,36,101.8,36c32.4,0,53.9-11.8,53.9-29.4
			c0-14.4-10.1-16.8-10.1-24.6C145.6-28.4,182.2-29.4,182.2-58.5z M133.4,1.7c0,7.5-12.6,12.5-31.6,12.5
			c-41.2,0-68.6-19.5-68.6-48.8c0-30.3,29.2-50.5,73.3-50.5c32.3,0,53.7,10.7,53.7,26.8c0,19.1-36.7,19-36.7,38.1
			C123.6-8.8,133.4-7.1,133.4,1.7z M141.1-59.9c0-4.7-3.8-8.5-8.5-8.5c-4.7,0-8.6,3.8-8.6,8.5c0,4.8,3.8,8.5,8.6,8.5
			C137.3-51.4,141.1-55.1,141.1-59.9z M105.8-75.9c-5.7,0-10.4,4.6-10.4,10.3c0,5.7,4.7,10.3,10.4,10.3c5.7,0,10.3-4.6,10.3-10.3
			C116.1-71.3,111.5-75.9,105.8-75.9z M75.8-70.8c-7,0-12.6,5.5-12.6,12.4c0,7,5.6,12.5,12.6,12.5c6.8,0,12.5-5.5,12.5-12.5
			C88.3-65.4,82.7-70.8,75.8-70.8z M54.4-47.5c-5.7,0-10.4,4.6-10.4,10.4c0,5.7,4.7,10.5,10.4,10.5c5.7,0,10.3-4.8,10.3-10.5
			C64.7-42.8,60-47.5,54.4-47.5z"/>
		<path d="M114.5-17.6c0,11-7.8,18.8-18.8,18.8c-10.3,0-18.7-8.4-18.7-18.8c0-10.3,8.4-18.8,18.7-18.8
			C106.1-36.3,114.5-27.9,114.5-17.6z"/>
	</g>
	<g id="Heavy-L" transform="matrix(1 0 0 1 2542.4 1556)">
		<path d="M51.5-47.3c-5.7,0-10.3,4.6-10.3,10.3c0,5.7,4.7,10.4,10.3,10.4c5.6,0,10.2-4.7,10.2-10.4C61.7-42.7,57.2-47.3,51.5-47.3z
			 M131.1-68.7c-4.7,0-8.4,3.8-8.4,8.4c0,4.7,3.8,8.5,8.4,8.5c4.6,0,8.4-3.7,8.4-8.5C139.5-64.8,135.7-68.7,131.1-68.7z M73.3-71.2
			c-7,0-12.7,5.5-12.7,12.5c0,7.1,5.7,12.7,12.7,12.7C80.3-46,86-51.6,86-58.7C86-65.7,80.3-71.2,73.3-71.2z M103.8-76.2
			c-5.7,0-10.4,4.6-10.4,10.3c0,5.7,4.7,10.3,10.4,10.3c5.7,0,10.3-4.6,10.3-10.3C114.1-71.7,109.5-76.2,103.8-76.2z M131.1-68.7
			c-4.7,0-8.4,3.8-8.4,8.4c0,4.7,3.8,8.5,8.4,8.5c4.6,0,8.4-3.7,8.4-8.5C139.5-64.8,135.7-68.7,131.1-68.7z M103.8-76.2
			c-5.7,0-10.4,4.6-10.4,10.3c0,5.7,4.7,10.3,10.4,10.3c5.7,0,10.3-4.6,10.3-10.3C114.1-71.7,109.5-76.2,103.8-76.2z M73.3-71.2
			c-7,0-12.7,5.5-12.7,12.5c0,7.1,5.7,12.7,12.7,12.7C80.3-46,86-51.6,86-58.7C86-65.7,80.3-71.2,73.3-71.2z M51.5-47.3
			c-5.7,0-10.3,4.6-10.3,10.3c0,5.7,4.7,10.4,10.3,10.4c5.6,0,10.2-4.7,10.2-10.4C61.7-42.7,57.2-47.3,51.5-47.3z M177.3-58
			c0-28.3-29.3-47.1-73.1-47.1c-55.6,0-92.9,29-92.9,70.3c0,41.1,35.4,68.5,88.2,68.5c30.9,0,51.5-11.1,51.5-27.7
			c0-13.9-10.3-16.4-10.3-24.1C140.6-28.7,177.3-29.6,177.3-58z M131.7,2c0,7.8-12.8,12.8-32.2,12.8C57.8,14.8,30.2-5,30.2-34.8
			c0-30.8,29.5-51.4,74-51.4c32.6,0,54.1,11.3,54.1,28.2c0,19.9-36.7,19-36.7,38.1C121.7-8.6,131.7-6.5,131.7,2z M139.5-60.2
			c0-4.6-3.8-8.4-8.4-8.4c-4.7,0-8.4,3.8-8.4,8.4c0,4.7,3.8,8.5,8.4,8.5C135.7-51.8,139.5-55.5,139.5-60.2z M103.8-76.2
			c-5.7,0-10.4,4.6-10.4,10.3c0,5.7,4.7,10.3,10.4,10.3c5.7,0,10.3-4.6,10.3-10.3C114.1-71.7,109.5-76.2,103.8-76.2z M73.3-71.2
			c-7,0-12.7,5.5-12.7,12.5c0,7.1,5.7,12.7,12.7,12.7C80.3-46,86-51.6,86-58.7C86-65.7,80.3-71.2,73.3-71.2z M51.5-47.3
			c-5.7,0-10.3,4.6-10.3,10.3c0,5.7,4.7,10.4,10.3,10.4c5.6,0,10.2-4.7,10.2-10.4C61.7-42.7,57.2-47.3,51.5-47.3z"/>
		<path d="M112.2-17.2c0,10.7-7.9,18.6-18.7,18.6C83.4,1.4,75-6.9,75-17.2c0-10.2,8.4-18.5,18.5-18.5
			C103.8-35.7,112.2-27.3,112.2-17.2z"/>
	</g>
	<g id="Bold-L" transform="matrix(1 0 0 1 2248.45 1556)">
		<path d="M48.3-47.1c-5.6,0-10.2,4.5-10.2,10.2c0,5.6,4.6,10.3,10.2,10.3c5.6,0,10.1-4.7,10.1-10.3C58.4-42.5,54-47.1,48.3-47.1z
			 M129.4-68.8c-4.7,0-8.4,3.8-8.4,8.3c0,4.7,3.8,8.3,8.4,8.3c4.6,0,8.3-3.7,8.3-8.3C137.7-65.1,133.9-68.8,129.4-68.8z M70.6-71.7
			c-7.1,0-12.9,5.6-12.9,12.7c0,7.2,5.8,12.8,12.9,12.8c7,0,12.8-5.6,12.8-12.8C83.4-66.1,77.6-71.7,70.6-71.7z M101.5-76.6
			c-5.7,0-10.4,4.5-10.4,10.3c0,5.7,4.7,10.3,10.4,10.3c5.7,0,10.3-4.6,10.3-10.3C111.8-72.1,107.2-76.6,101.5-76.6z M129.4-68.8
			c-4.7,0-8.4,3.8-8.4,8.3c0,4.7,3.8,8.3,8.4,8.3c4.6,0,8.3-3.7,8.3-8.3C137.7-65.1,133.9-68.8,129.4-68.8z M101.5-76.6
			c-5.7,0-10.4,4.5-10.4,10.3c0,5.7,4.7,10.3,10.4,10.3c5.7,0,10.3-4.6,10.3-10.3C111.8-72.1,107.2-76.6,101.5-76.6z M70.6-71.7
			c-7.1,0-12.9,5.6-12.9,12.7c0,7.2,5.8,12.8,12.9,12.8c7,0,12.8-5.6,12.8-12.8C83.4-66.1,77.6-71.7,70.6-71.7z M48.3-47.1
			c-5.6,0-10.2,4.5-10.2,10.2c0,5.6,4.6,10.3,10.2,10.3c5.6,0,10.1-4.7,10.1-10.3C58.4-42.5,54-47.1,48.3-47.1z M171.8-57.5
			c0-27.2-28.1-45.2-70.2-45.2c-54.1,0-90.3,27.8-90.3,67.9c0,39.6,34.5,66,85.6,66c29.2,0,48.7-10.4,48.7-25.9
			c0-13.3-10.4-15.7-10.4-23.5C135.2-29,171.8-29.9,171.8-57.5z M129.8,2.4c0,8.1-13,13.3-33,13.3c-42.1,0-70.1-20.2-70.1-50.4
			c0-31.4,29.7-52.4,74.8-52.4c32.9,0,54.6,12,54.6,29.7c0,20.8-36.7,19.2-36.7,38.1C119.5-8.2,129.8-5.8,129.8,2.4z M137.7-60.5
			c0-4.6-3.8-8.3-8.3-8.3c-4.7,0-8.4,3.8-8.4,8.3c0,4.7,3.8,8.3,8.4,8.3C133.9-52.2,137.7-55.8,137.7-60.5z M101.5-76.6
			c-5.7,0-10.4,4.5-10.4,10.3c0,5.7,4.7,10.3,10.4,10.3c5.7,0,10.3-4.6,10.3-10.3C111.8-72.1,107.2-76.6,101.5-76.6z M70.6-71.7
			c-7.1,0-12.9,5.6-12.9,12.7c0,7.2,5.8,12.8,12.9,12.8c7,0,12.8-5.6,12.8-12.8C83.4-66.1,77.6-71.7,70.6-71.7z M48.3-47.1
			c-5.6,0-10.2,4.5-10.2,10.2c0,5.6,4.6,10.3,10.2,10.3c5.6,0,10.1-4.7,10.1-10.3C58.4-42.5,54-47.1,48.3-47.1z"/>
		<path d="M109.6-16.8c0,10.5-7.9,18.4-18.4,18.4c-10.1,0-18.3-8.2-18.3-18.4c0-10.1,8.2-18.3,18.3-18.3
			C101.4-35.1,109.6-26.8,109.6-16.8z"/>
	</g>
	<g id="Semibold-L" transform="matrix(1 0 0 1 1953.62 1556)">
		<path d="M46.1-46.9c-5.6,0-10.2,4.5-10.2,10c0,5.6,4.6,10.3,10.2,10.3c5.6,0,10.1-4.6,10.1-10.3C56.2-42.4,51.7-46.9,46.1-46.9z
			 M128.1-69c-4.6,0-8.4,3.8-8.4,8.3c0,4.6,3.8,8.3,8.4,8.3c4.6,0,8.3-3.7,8.3-8.3C136.4-65.3,132.7-69,128.1-69z M68.7-72
			c-7.2,0-13,5.7-13,12.8c0,7.2,5.8,12.9,13,12.9c7.1,0,12.9-5.7,12.9-12.9C81.5-66.3,75.7-72,68.7-72z M100-76.9
			c-5.7,0-10.4,4.6-10.4,10.3c0,5.7,4.7,10.2,10.4,10.2c5.7,0,10.2-4.5,10.2-10.2C110.2-72.4,105.7-76.9,100-76.9z M128.1-69
			c-4.6,0-8.4,3.8-8.4,8.3c0,4.6,3.8,8.3,8.4,8.3c4.6,0,8.3-3.7,8.3-8.3C136.4-65.3,132.7-69,128.1-69z M100-76.9
			c-5.7,0-10.4,4.6-10.4,10.3c0,5.7,4.7,10.2,10.4,10.2c5.7,0,10.2-4.5,10.2-10.2C110.2-72.4,105.7-76.9,100-76.9z M68.7-72
			c-7.2,0-13,5.7-13,12.8c0,7.2,5.8,12.9,13,12.9c7.1,0,12.9-5.7,12.9-12.9C81.5-66.3,75.7-72,68.7-72z M46.1-46.9
			c-5.6,0-10.2,4.5-10.2,10c0,5.6,4.6,10.3,10.2,10.3c5.6,0,10.1-4.6,10.1-10.3C56.2-42.4,51.7-46.9,46.1-46.9z M168-57.1
			c0-26.4-27.4-43.9-68.2-43.9c-52.9,0-88.5,26.9-88.5,66.3c0,38.5,33.8,64.2,83.8,64.2c28,0,46.8-9.9,46.8-24.6
			c0-12.9-10.5-15.4-10.5-23.1C131.4-29.2,168-30.1,168-57.1z M128.5,2.7c0,8.2-13.2,13.6-33.4,13.6c-42.5,0-70.7-20.4-70.7-51
			c0-31.8,29.9-53,75.3-53c33.2,0,55,12.3,55,30.7c0,21.4-36.8,19.2-36.8,38.2C118-8.1,128.5-5.4,128.5,2.7z M136.4-60.7
			c0-4.6-3.7-8.3-8.3-8.3c-4.6,0-8.4,3.8-8.4,8.3c0,4.6,3.8,8.3,8.4,8.3C132.7-52.4,136.4-56,136.4-60.7z M100-76.9
			c-5.7,0-10.4,4.6-10.4,10.3c0,5.7,4.7,10.2,10.4,10.2c5.7,0,10.2-4.5,10.2-10.2C110.2-72.4,105.7-76.9,100-76.9z M68.7-72
			c-7.2,0-13,5.7-13,12.8c0,7.2,5.8,12.9,13,12.9c7.1,0,12.9-5.7,12.9-12.9C81.5-66.3,75.7-72,68.7-72z M46.1-46.9
			c-5.6,0-10.2,4.5-10.2,10c0,5.6,4.6,10.3,10.2,10.3c5.6,0,10.1-4.6,10.1-10.3C56.2-42.4,51.7-46.9,46.1-46.9z"/>
		<path d="M107.8-16.4c0,10.2-8,18.2-18.2,18.2c-10,0-18.1-8.2-18.1-18.2c0-10,8.2-18.2,18.1-18.2C99.7-34.6,107.8-26.4,107.8-16.4z
			"/>
	</g>
	<g id="Medium-L" transform="matrix(1 0 0 1 1658.35 1556)">
		<path d="M44.5-46.8c-5.6,0-10.1,4.5-10.1,10.1c0,5.5,4.6,10.2,10.1,10.2c5.5,0,10-4.6,10-10.2C54.5-42.4,50.1-46.8,44.5-46.8z
			 M127.2-69.1c-4.6,0-8.4,3.7-8.4,8.2c0,4.6,3.8,8.3,8.4,8.3c4.5,0,8.2-3.7,8.2-8.3C135.4-65.4,131.7-69.1,127.2-69.1z M67.2-72.2
			c-7.2,0-13.1,5.7-13.1,12.8c0,7.3,5.9,13,13.1,13c7.1,0,12.9-5.7,12.9-13C80.1-66.5,74.3-72.2,67.2-72.2z M98.8-77.1
			c-5.7,0-10.4,4.6-10.4,10.2c0,5.7,4.7,10.3,10.4,10.3c5.7,0,10.2-4.6,10.2-10.3C109-72.6,104.5-77.1,98.8-77.1z M127.2-69.1
			c-4.6,0-8.4,3.7-8.4,8.2c0,4.6,3.8,8.3,8.4,8.3c4.5,0,8.2-3.7,8.2-8.3C135.4-65.4,131.7-69.1,127.2-69.1z M98.8-77.1
			c-5.7,0-10.4,4.6-10.4,10.2c0,5.7,4.7,10.3,10.4,10.3c5.7,0,10.2-4.6,10.2-10.3C109-72.6,104.5-77.1,98.8-77.1z M67.2-72.2
			c-7.2,0-13.1,5.7-13.1,12.8c0,7.3,5.9,13,13.1,13c7.1,0,12.9-5.7,12.9-13C80.1-66.5,74.3-72.2,67.2-72.2z M44.5-46.8
			c-5.6,0-10.1,4.5-10.1,10.1c0,5.5,4.6,10.2,10.1,10.2c5.5,0,10-4.6,10-10.2C54.5-42.4,50.1-46.8,44.5-46.8z M165.1-56.8
			c0-25.8-26.8-42.9-66.7-42.9c-52.1,0-87.2,26.2-87.2,65c0,37.7,33.2,62.9,82.5,62.9c27.2,0,45.3-9.5,45.3-23.7
			c0-12.6-10.5-15-10.5-22.8C128.5-29.3,165.1-30.3,165.1-56.8z M127.5,2.9c0,8.4-13.3,13.8-33.8,13.8c-42.8,0-71-20.6-71-51.5
			c0-32.2,30.1-53.6,75.7-53.6c33.3,0,55.3,12.7,55.3,31.5c0,21.9-36.8,19.3-36.8,38.2C116.9-7.9,127.5-5,127.5,2.9z M135.4-60.9
			c0-4.5-3.7-8.2-8.2-8.2c-4.6,0-8.4,3.7-8.4,8.2c0,4.6,3.8,8.3,8.4,8.3C131.7-52.6,135.4-56.2,135.4-60.9z M98.8-77.1
			c-5.7,0-10.4,4.6-10.4,10.2c0,5.7,4.7,10.3,10.4,10.3c5.7,0,10.2-4.6,10.2-10.3C109-72.6,104.5-77.1,98.8-77.1z M67.2-72.2
			c-7.2,0-13.1,5.7-13.1,12.8c0,7.3,5.9,13,13.1,13c7.1,0,12.9-5.7,12.9-13C80.1-66.5,74.3-72.2,67.2-72.2z M44.5-46.8
			c-5.6,0-10.1,4.5-10.1,10.1c0,5.5,4.6,10.2,10.1,10.2c5.5,0,10-4.6,10-10.2C54.5-42.4,50.1-46.8,44.5-46.8z"/>
		<path d="M106.4-16.2c0,10.1-7.9,18.1-18.1,18.1c-9.9,0-18-8.1-18-18.1c0-9.9,8.1-18,18-18C98.3-34.2,106.4-26.1,106.4-16.2z"/>
	</g>
	<g id="Regular-L" transform="matrix(1 0 0 1 1363.52 1556)">
		<path d="M42.3-46.7c-5.5,0-10,4.4-10,10c0,5.5,4.5,10.1,10,10.1c5.5,0,10-4.6,10-10.1C52.2-42.3,47.8-46.7,42.3-46.7z M126.1-69.3
			c-4.6,0-8.3,3.7-8.3,8.2c0,4.6,3.7,8.2,8.3,8.2c4.5,0,8.1-3.6,8.1-8.2C134.2-65.6,130.5-69.3,126.1-69.3z M65.3-72.5
			c-7.3,0-13.2,5.7-13.2,12.9c0,7.4,5.9,13.1,13.2,13.1c7.2,0,13-5.7,13-13.1C78.3-66.8,72.5-72.5,65.3-72.5z M97.2-77.4
			c-5.7,0-10.3,4.6-10.3,10.2c0,5.7,4.7,10.3,10.3,10.3c5.8,0,10.3-4.6,10.3-10.3C107.5-72.8,103-77.4,97.2-77.4z M126.1-69.3
			c-4.6,0-8.3,3.7-8.3,8.2c0,4.6,3.7,8.2,8.3,8.2c4.5,0,8.1-3.6,8.1-8.2C134.2-65.6,130.5-69.3,126.1-69.3z M97.2-77.4
			c-5.7,0-10.3,4.6-10.3,10.2c0,5.7,4.7,10.3,10.3,10.3c5.8,0,10.3-4.6,10.3-10.3C107.5-72.8,103-77.4,97.2-77.4z M65.3-72.5
			c-7.3,0-13.2,5.7-13.2,12.9c0,7.4,5.9,13.1,13.2,13.1c7.2,0,13-5.7,13-13.1C78.3-66.8,72.5-72.5,65.3-72.5z M42.3-46.7
			c-5.5,0-10,4.4-10,10c0,5.5,4.5,10.1,10,10.1c5.5,0,10-4.6,10-10.1C52.2-42.3,47.8-46.7,42.3-46.7z M161.4-56.5
			c0-25.1-26-41.7-64.7-41.7c-51,0-85.4,25.4-85.4,63.4c0,36.6,32.6,61.2,80.7,61.2c26,0,43.5-9.1,43.5-22.5
			c0-12.2-10.7-14.6-10.7-22.4C124.8-29.5,161.4-30.5,161.4-56.5z M126.3,3.2c0,8.6-13.4,14.1-34.3,14.1c-43.1,0-71.6-20.8-71.6-52
			C20.4-67.3,50.6-89,96.7-89c33.5,0,55.6,13.1,55.6,32.5c0,22.5-36.8,19.3-36.8,38.2C115.4-7.7,126.3-4.5,126.3,3.2z M126.1-52.9
			c4.5,0,8.1-3.6,8.1-8.2c0-4.5-3.7-8.2-8.1-8.2c-4.6,0-8.3,3.7-8.3,8.2C117.7-56.5,121.4-52.9,126.1-52.9z M97.2-77.4
			c-5.7,0-10.3,4.6-10.3,10.2c0,5.7,4.7,10.3,10.3,10.3c5.8,0,10.3-4.6,10.3-10.3C107.5-72.8,103-77.4,97.2-77.4z M65.3-72.5
			c-7.3,0-13.2,5.7-13.2,12.9c0,7.4,5.9,13.1,13.2,13.1c7.2,0,13-5.7,13-13.1C78.3-66.8,72.5-72.5,65.3-72.5z M42.3-46.7
			c-5.5,0-10,4.4-10,10c0,5.5,4.5,10.1,10,10.1c5.5,0,10-4.6,10-10.1C52.2-42.3,47.8-46.7,42.3-46.7z"/>
		<path d="M104.7-15.9C104.7-6,96.7,2,86.8,2C77,2,68.9-6,68.9-15.9c0-9.8,8.1-17.9,17.9-17.9C96.7-33.7,104.7-25.7,104.7-15.9z"/>
	</g>
	<g id="Light-L" transform="matrix(1 0 0 1 1067.9 1556)">
		<path d="M41.2-46c-5.2,0-9.4,4.1-9.4,9.3c0,5.2,4.3,9.5,9.4,9.5s9.3-4.3,9.3-9.5C50.5-41.9,46.4-46,41.2-46z M124.9-68.8
			c-4.3,0-7.8,3.5-7.8,7.7c0,4.3,3.5,7.7,7.8,7.7c4.2,0,7.6-3.4,7.6-7.7C132.5-65.3,129.1-68.8,124.9-68.8z M64.2-72.3
			c-7.2,0-13,5.6-13,12.7c0,7.2,5.8,12.9,13,12.9c7.1,0,12.8-5.7,12.8-12.9C77-66.6,71.3-72.3,64.2-72.3z M96.1-77
			c-5.5,0-9.9,4.4-9.9,9.8c0,5.4,4.4,9.9,9.9,9.9c5.5,0,9.8-4.4,9.8-9.9C106-72.6,101.7-77,96.1-77z M124.9-68.8
			c-4.3,0-7.8,3.5-7.8,7.7c0,4.3,3.5,7.7,7.8,7.7c4.2,0,7.6-3.4,7.6-7.7C132.5-65.3,129.1-68.8,124.9-68.8z M96.1-77
			c-5.5,0-9.9,4.4-9.9,9.8c0,5.4,4.4,9.9,9.9,9.9c5.5,0,9.8-4.4,9.8-9.9C106-72.6,101.7-77,96.1-77z M64.2-72.3
			c-7.2,0-13,5.6-13,12.7c0,7.2,5.8,12.9,13,12.9c7.1,0,12.8-5.7,12.8-12.9C77-66.6,71.3-72.3,64.2-72.3z M41.2-46
			c-5.2,0-9.4,4.1-9.4,9.3c0,5.2,4.3,9.5,9.4,9.5s9.3-4.3,9.3-9.5C50.5-41.9,46.4-46,41.2-46z M159.2-56.5
			c0-24.4-25.5-40.5-63.6-40.5c-50.4,0-84.3,25-84.3,62.2c0,35.9,32.1,60.1,79.6,60.1c25.2,0,42.3-8.6,42.3-21.3
			c0-12-10.7-13.9-10.7-22.3C122.5-30.7,159.2-30.4,159.2-56.5z M126.3,3.2c0,9.3-13.7,15.2-35.3,15.2c-43.8,0-72.7-21.3-72.7-53.1
			c0-33.2,30.7-55.3,77.3-55.3c34.1,0,56.7,13.5,56.7,33.6c0,23.1-36.8,19.8-36.8,38.4C115.4-7.6,126.3-4.9,126.3,3.2z M124.9-53.4
			c4.2,0,7.6-3.4,7.6-7.7c0-4.2-3.4-7.7-7.6-7.7c-4.3,0-7.8,3.5-7.8,7.7C117.1-56.8,120.6-53.4,124.9-53.4z M96.1-77
			c-5.5,0-9.9,4.4-9.9,9.8c0,5.4,4.4,9.9,9.9,9.9c5.5,0,9.8-4.4,9.8-9.9C106-72.6,101.7-77,96.1-77z M64.2-72.3
			c-7.2,0-13,5.6-13,12.7c0,7.2,5.8,12.9,13,12.9c7.1,0,12.8-5.7,12.8-12.9C77-66.6,71.3-72.3,64.2-72.3z M41.2-46
			c-5.2,0-9.4,4.1-9.4,9.3c0,5.2,4.3,9.5,9.4,9.5s9.3-4.3,9.3-9.5C50.5-41.9,46.4-46,41.2-46z"/>
		<path d="M104.2-15.9c0,10.2-8.3,18.5-18.5,18.5c-10.2,0-18.5-8.3-18.5-18.5c0-10.2,8.3-18.5,18.5-18.5
			C95.9-34.3,104.2-26,104.2-15.9z"/>
	</g>
	<g id="Thin-L" transform="matrix(1 0 0 1 772.658 1556)">
		<path d="M39.7-45.2c-4.7,0-8.6,3.8-8.6,8.5c0,4.7,4,8.6,8.6,8.6c4.6,0,8.5-4,8.5-8.6C48.2-41.5,44.5-45.2,39.7-45.2z M123.5-68.1
			c-4,0-7.2,3.2-7.2,7c0,3.9,3.1,7,7.2,7c3.8,0,6.8-3.1,6.8-7C130.4-64.9,127.2-68.1,123.5-68.1z M62.7-72C55.6-72,50-66.5,50-59.6
			c0,7,5.7,12.7,12.8,12.7c7,0,12.6-5.6,12.6-12.7C75.3-66.5,69.7-72,62.7-72z M94.7-76.4c-5.2,0-9.3,4.2-9.3,9.2
			c0,5.1,4.1,9.3,9.3,9.3c5.2,0,9.2-4.1,9.2-9.3C103.9-72.3,99.9-76.4,94.7-76.4z M123.5-68.1c-4,0-7.2,3.2-7.2,7c0,3.9,3.1,7,7.2,7
			c3.8,0,6.8-3.1,6.8-7C130.4-64.9,127.2-68.1,123.5-68.1z M94.7-76.4c-5.2,0-9.3,4.2-9.3,9.2c0,5.1,4.1,9.3,9.3,9.3
			c5.2,0,9.2-4.1,9.2-9.3C103.9-72.3,99.9-76.4,94.7-76.4z M62.7-72C55.6-72,50-66.5,50-59.6c0,7,5.7,12.7,12.8,12.7
			c7,0,12.6-5.6,12.6-12.7C75.3-66.5,69.7-72,62.7-72z M39.7-45.2c-4.7,0-8.6,3.8-8.6,8.5c0,4.7,4,8.6,8.6,8.6c4.6,0,8.5-4,8.5-8.6
			C48.2-41.5,44.5-45.2,39.7-45.2z M156.3-56.5c0-23.5-24.8-39.1-62.2-39.1c-49.7,0-82.8,24.4-82.8,60.8c0,35,31.4,58.6,78.2,58.6
			c24.3,0,40.8-8.1,40.8-19.9c0-11.8-10.8-12.9-10.8-22.1C119.4-32.3,156.3-30.2,156.3-56.5z M126.3,3.2c0,10.4-14.1,16.7-36.8,16.7
			C44.9,19.8,15.3-2,15.3-34.8c0-34.1,31.4-56.8,78.8-56.8c34.9,0,58.2,14.1,58.2,35.1c0,24-36.8,20.4-36.8,38.6
			C115.4-7.6,126.3-5.5,126.3,3.2z M130.4-61.1c0-3.9-3.1-7-6.8-7c-4,0-7.2,3.2-7.2,7c0,3.9,3.1,7,7.2,7
			C127.3-54,130.4-57.1,130.4-61.1z M94.7-76.4c-5.2,0-9.3,4.2-9.3,9.2c0,5.1,4.1,9.3,9.3,9.3c5.2,0,9.2-4.1,9.2-9.3
			C103.9-72.3,99.9-76.4,94.7-76.4z M62.7-72C55.6-72,50-66.5,50-59.6c0,7,5.7,12.7,12.8,12.7c7,0,12.6-5.6,12.6-12.7
			C75.3-66.5,69.7-72,62.7-72z M39.7-45.2c-4.7,0-8.6,3.8-8.6,8.5c0,4.7,4,8.6,8.6,8.6c4.6,0,8.5-4,8.5-8.6
			C48.2-41.5,44.5-45.2,39.7-45.2z"/>
		<circle cx="84.3" cy="-15.9" r="19.2"/>
	</g>
	<g id="Ultralight-L" transform="matrix(1 0 0 1 476.703 1556)">
		<path d="M39-44.8c-4.5,0-8.2,3.6-8.2,8.1c0,4.5,3.8,8.2,8.2,8.2c4.4,0,8.1-3.8,8.1-8.2C47.1-41.3,43.6-44.8,39-44.8z M122.8-67.8
			c-3.8,0-6.8,3-6.8,6.7c0,3.7,3,6.7,6.8,6.7c3.6,0,6.5-2.9,6.5-6.7C129.3-64.8,126.3-67.8,122.8-67.8z M62-71.9
			c-7,0-12.6,5.4-12.6,12.3c0,7,5.6,12.5,12.6,12.5c7,0,12.5-5.5,12.5-12.5C74.5-66.4,68.8-71.9,62-71.9z M93.9-76.1c-5,0-9,4-9,8.9
			c0,4.9,4,9,9,9c5.1,0,8.9-4,8.9-9C102.8-72.1,99-76.1,93.9-76.1z M122.8-67.8c-3.8,0-6.8,3-6.8,6.7c0,3.7,3,6.7,6.8,6.7
			c3.6,0,6.5-2.9,6.5-6.7C129.3-64.8,126.3-67.8,122.8-67.8z M93.9-76.1c-5,0-9,4-9,8.9c0,4.9,4,9,9,9c5.1,0,8.9-4,8.9-9
			C102.8-72.1,99-76.1,93.9-76.1z M62-71.9c-7,0-12.6,5.4-12.6,12.3c0,7,5.6,12.5,12.6,12.5c7,0,12.5-5.5,12.5-12.5
			C74.5-66.4,68.8-71.9,62-71.9z M39-44.8c-4.5,0-8.2,3.6-8.2,8.1c0,4.5,3.8,8.2,8.2,8.2c4.4,0,8.1-3.8,8.1-8.2
			C47.1-41.3,43.6-44.8,39-44.8z M154.7-56.5c0-23-24.4-38.3-61.4-38.3c-49.3,0-82.1,24.1-82.1,60c0,34.6,31.1,57.9,77.4,57.9
			c23.8,0,40.1-7.9,40.1-19.1c0-11.7-10.9-12.5-10.9-22.1C117.9-33.1,154.7-30.2,154.7-56.5z M115.4-17.8
			c0,10.2,10.8,12.1,10.8,20.9c0,10.8-14.2,17.4-37.6,17.4c-44.9,0-74.9-22.2-74.9-55.4c0-34.6,31.8-57.6,79.6-57.6
			c35.3,0,58.9,14.3,58.9,35.8C152.2-32,115.4-35.7,115.4-17.8z M122.8-67.8c-3.8,0-6.8,3-6.8,6.7c0,3.7,3,6.7,6.8,6.7
			c3.6,0,6.5-2.9,6.5-6.7C129.3-64.8,126.3-67.8,122.8-67.8z M93.9-76.1c-5,0-9,4-9,8.9c0,4.9,4,9,9,9c5.1,0,8.9-4,8.9-9
			C102.8-72.1,99-76.1,93.9-76.1z M62-71.9c-7,0-12.6,5.4-12.6,12.3c0,7,5.6,12.5,12.6,12.5c7,0,12.5-5.5,12.5-12.5
			C74.5-66.4,68.8-71.9,62-71.9z M39-44.8c-4.5,0-8.2,3.6-8.2,8.1c0,4.5,3.8,8.2,8.2,8.2c4.4,0,8.1-3.8,8.1-8.2
			C47.1-41.3,43.6-44.8,39-44.8z"/>
		<path d="M103.1-15.9c0,10.8-8.8,19.5-19.6,19.5S64-5.1,64-15.9c0-10.8,8.8-19.6,19.6-19.6S103.1-26.7,103.1-15.9z"/>
	</g>
	<g id="Black-M" transform="matrix(1 0 0 1 2855.71 1126)">
		<path d="M45.4-44.6c-4.3,0-7.9,3.5-7.9,7.8c0,4.3,3.6,7.9,7.9,7.9c4.2,0,7.8-3.6,7.8-7.9C53.1-41.1,49.6-44.6,45.4-44.6z
			 M61.5-62.2c-5.2,0-9.5,4.1-9.5,9.3c0,5.3,4.2,9.5,9.5,9.5c5.1,0,9.4-4.2,9.4-9.5C70.9-58.1,66.6-62.2,61.5-62.2z M84.1-66
			c-4.3,0-7.8,3.4-7.8,7.8c0,4.3,3.5,7.8,7.8,7.8c4.3,0,7.8-3.5,7.8-7.8C91.9-62.6,88.4-66,84.1-66z M104.3-60.4
			c-3.6,0-6.4,2.9-6.4,6.4c0,3.6,2.8,6.4,6.4,6.4c3.5,0,6.4-2.8,6.4-6.4C110.7-57.5,107.8-60.4,104.3-60.4z M104.3-60.4
			c-3.6,0-6.4,2.9-6.4,6.4c0,3.6,2.8,6.4,6.4,6.4c3.5,0,6.4-2.8,6.4-6.4C110.7-57.5,107.8-60.4,104.3-60.4z M84.1-66
			c-4.3,0-7.8,3.4-7.8,7.8c0,4.3,3.5,7.8,7.8,7.8c4.3,0,7.8-3.5,7.8-7.8C91.9-62.6,88.4-66,84.1-66z M61.5-62.2
			c-5.2,0-9.5,4.1-9.5,9.3c0,5.3,4.2,9.5,9.5,9.5c5.1,0,9.4-4.2,9.4-9.5C70.9-58.1,66.6-62.2,61.5-62.2z M45.4-44.6
			c-4.3,0-7.9,3.5-7.9,7.8c0,4.3,3.6,7.9,7.9,7.9c4.2,0,7.8-3.6,7.8-7.9C53.1-41.1,49.6-44.6,45.4-44.6z M146.6-53.8
			c0-23.7-24.6-39.4-61.5-39.4c-45.8,0-76.4,24.7-76.4,58.4c0,34.4,29.1,57.3,72.6,57.3c26.8,0,44.6-9.8,44.6-24.4
			c0-11.7-7.8-13.4-7.8-19.7C118.2-30.2,146.6-30.3,146.6-53.8z M105.6-7.1c0,5.9-9.7,9.7-24.2,9.7c-31.6,0-52.7-14.9-52.7-37.4
			c0-23.1,22.6-38.6,56.5-38.6c25,0,41.6,7.8,41.6,19.6c0,14.1-28.4,14.9-28.4,29.6C98.4-15.1,105.6-14.4,105.6-7.1z M110.7-54
			c0-3.5-2.9-6.4-6.4-6.4c-3.6,0-6.4,2.9-6.4,6.4c0,3.6,2.8,6.4,6.4,6.4C107.8-47.6,110.7-50.4,110.7-54z M84.1-66
			c-4.3,0-7.8,3.4-7.8,7.8c0,4.3,3.5,7.8,7.8,7.8c4.3,0,7.8-3.5,7.8-7.8C91.9-62.6,88.4-66,84.1-66z M61.5-62.2
			c-5.2,0-9.5,4.1-9.5,9.3c0,5.3,4.2,9.5,9.5,9.5c5.1,0,9.4-4.2,9.4-9.5C70.9-58.1,66.6-62.2,61.5-62.2z M45.4-44.6
			c-4.3,0-7.9,3.5-7.9,7.8c0,4.3,3.6,7.9,7.9,7.9c4.2,0,7.8-3.6,7.8-7.9C53.1-41.1,49.6-44.6,45.4-44.6z M45.4-44.6
			c-4.3,0-7.9,3.5-7.9,7.8c0,4.3,3.6,7.9,7.9,7.9c4.2,0,7.8-3.6,7.8-7.9C53.1-41.1,49.6-44.6,45.4-44.6z M61.5-62.2
			c-5.2,0-9.5,4.1-9.5,9.3c0,5.3,4.2,9.5,9.5,9.5c5.1,0,9.4-4.2,9.4-9.5C70.9-58.1,66.6-62.2,61.5-62.2z M84.1-66
			c-4.3,0-7.8,3.4-7.8,7.8c0,4.3,3.5,7.8,7.8,7.8c4.3,0,7.8-3.5,7.8-7.8C91.9-62.6,88.4-66,84.1-66z M104.3-60.4
			c-3.6,0-6.4,2.9-6.4,6.4c0,3.6,2.8,6.4,6.4,6.4c3.5,0,6.4-2.8,6.4-6.4C110.7-57.5,107.8-60.4,104.3-60.4z M84.1-66
			c-4.3,0-7.8,3.4-7.8,7.8c0,4.3,3.5,7.8,7.8,7.8c4.3,0,7.8-3.5,7.8-7.8C91.9-62.6,88.4-66,84.1-66z M61.5-62.2
			c-5.2,0-9.5,4.1-9.5,9.3c0,5.3,4.2,9.5,9.5,9.5c5.1,0,9.4-4.2,9.4-9.5C70.9-58.1,66.6-62.2,61.5-62.2z M104.3-60.4
			c-3.6,0-6.4,2.9-6.4,6.4c0,3.6,2.8,6.4,6.4,6.4c3.5,0,6.4-2.8,6.4-6.4C110.7-57.5,107.8-60.4,104.3-60.4z M45.4-44.6
			c-4.3,0-7.9,3.5-7.9,7.8c0,4.3,3.6,7.9,7.9,7.9c4.2,0,7.8-3.6,7.8-7.9C53.1-41.1,49.6-44.6,45.4-44.6z"/>
		<path d="M91.5-22.1C91.5-13,85.4-7,76.3-7C68-7,61.2-13.7,61.2-22.1c0-8.3,6.7-15.1,15.1-15.1C84.7-37.2,91.5-30.4,91.5-22.1z"/>
	</g>
	<g id="Heavy-M" transform="matrix(1 0 0 1 2561.4 1126)">
		<path d="M42.5-44.6c-4.3,0-7.9,3.5-7.9,7.9c0,4.3,3.6,8,7.9,8c4.3,0,7.9-3.6,7.9-8C50.4-41.1,46.9-44.6,42.5-44.6z M102.9-60.7
			c-3.6,0-6.5,2.9-6.5,6.4c0,3.6,2.9,6.5,6.5,6.5c3.6,0,6.4-2.8,6.4-6.5C109.3-57.9,106.4-60.7,102.9-60.7z M59.1-62.7
			c-5.3,0-9.7,4.2-9.7,9.5c0,5.4,4.3,9.7,9.7,9.7c5.3,0,9.6-4.2,9.6-9.7C68.7-58.5,64.4-62.7,59.1-62.7z M82.2-66.5
			c-4.4,0-8,3.5-8,7.9c0,4.3,3.6,7.9,8,7.9c4.3,0,7.9-3.5,7.9-7.9C90-63,86.5-66.5,82.2-66.5z M102.9-60.7c-3.6,0-6.5,2.9-6.5,6.4
			c0,3.6,2.9,6.5,6.5,6.5c3.6,0,6.4-2.8,6.4-6.5C109.3-57.9,106.4-60.7,102.9-60.7z M82.2-66.5c-4.4,0-8,3.5-8,7.9
			c0,4.3,3.6,7.9,8,7.9c4.3,0,7.9-3.5,7.9-7.9C90-63,86.5-66.5,82.2-66.5z M59.1-62.7c-5.3,0-9.7,4.2-9.7,9.5c0,5.4,4.3,9.7,9.7,9.7
			c5.3,0,9.6-4.2,9.6-9.7C68.7-58.5,64.4-62.7,59.1-62.7z M42.5-44.6c-4.3,0-7.9,3.5-7.9,7.9c0,4.3,3.6,8,7.9,8c4.3,0,7.9-3.6,7.9-8
			C50.4-41.1,46.9-44.6,42.5-44.6z M141.9-53.3c0-22.8-23.6-37.9-59-37.9c-44.4,0-74.1,23.6-74.1,56.4C8.7-1.8,37,20.3,79.2,20.3
			c25.3,0,42.1-9.2,42.1-22.9c0-11.2-7.9-13-7.9-19.2C113.4-30.2,141.9-30.6,141.9-53.3z M103.8-6.7c0,6-9.8,9.9-24.6,9.9
			c-32,0-53.3-15.2-53.3-37.9c0-23.6,22.8-39.3,57-39.3c25.1,0,41.8,8.3,41.8,20.8c0,14.8-28.4,14.8-28.4,29.6
			C96.3-14.8,103.8-13.7,103.8-6.7z M109.3-54.3c0-3.6-2.9-6.4-6.4-6.4c-3.6,0-6.5,2.9-6.5,6.4c0,3.6,2.9,6.5,6.5,6.5
			C106.4-47.8,109.3-50.6,109.3-54.3z M82.2-66.5c-4.4,0-8,3.5-8,7.9c0,4.3,3.6,7.9,8,7.9c4.3,0,7.9-3.5,7.9-7.9
			C90-63,86.5-66.5,82.2-66.5z M59.1-62.7c-5.3,0-9.7,4.2-9.7,9.5c0,5.4,4.3,9.7,9.7,9.7c5.3,0,9.6-4.2,9.6-9.7
			C68.7-58.5,64.4-62.7,59.1-62.7z M42.5-44.6c-4.3,0-7.9,3.5-7.9,7.9c0,4.3,3.6,8,7.9,8c4.3,0,7.9-3.6,7.9-8
			C50.4-41.1,46.9-44.6,42.5-44.6z"/>
		<path d="M89.1-21.6c0,8.7-6.1,14.8-14.8,14.8c-8.1,0-14.7-6.6-14.7-14.8c0-8.1,6.6-14.8,14.7-14.8C82.5-36.4,89.1-29.7,89.1-21.6z
			"/>
	</g>
	<g id="Bold-M" transform="matrix(1 0 0 1 2267.37 1126)">
		<path d="M39.4-44.5c-4.4,0-8,3.6-8,7.9c0,4.4,3.6,8.1,8,8.1c4.4,0,7.9-3.7,7.9-8.1C47.3-41,43.8-44.5,39.4-44.5z M101.3-61.2
			c-3.7,0-6.6,2.9-6.6,6.5c0,3.7,2.9,6.5,6.6,6.5c3.6,0,6.5-2.9,6.5-6.5C107.8-58.2,104.9-61.2,101.3-61.2z M56.4-63.2
			c-5.5,0-9.9,4.2-9.9,9.7c0,5.5,4.4,9.9,9.9,9.9c5.4,0,9.8-4.3,9.8-9.9C66.2-58.9,61.8-63.2,56.4-63.2z M80-67.1
			c-4.4,0-8.1,3.6-8.1,8c0,4.4,3.7,8,8.1,8c4.4,0,8-3.6,8-8C88-63.5,84.5-67.1,80-67.1z M101.3-61.2c-3.7,0-6.6,2.9-6.6,6.5
			c0,3.7,2.9,6.5,6.6,6.5c3.6,0,6.5-2.9,6.5-6.5C107.8-58.2,104.9-61.2,101.3-61.2z M80-67.1c-4.4,0-8.1,3.6-8.1,8
			c0,4.4,3.7,8,8.1,8c4.4,0,8-3.6,8-8C88-63.5,84.5-67.1,80-67.1z M56.4-63.2c-5.5,0-9.9,4.2-9.9,9.7c0,5.5,4.4,9.9,9.9,9.9
			c5.4,0,9.8-4.3,9.8-9.9C66.2-58.9,61.8-63.2,56.4-63.2z M39.4-44.5c-4.4,0-8,3.6-8,7.9c0,4.4,3.6,8.1,8,8.1c4.4,0,7.9-3.7,7.9-8.1
			C47.3-41,43.8-44.5,39.4-44.5z M136.5-52.8C136.5-74.5,114-89,80.3-89C37.5-89,8.7-66.7,8.7-34.9C8.7-3.3,36,17.8,76.7,17.8
			c23.6,0,39.4-8.5,39.4-21.2c0-10.6-8-12.6-8-18.6C108.1-30.2,136.5-31,136.5-52.8z M101.7-6.3c0,6.1-10,10-25.1,10
			c-32.4,0-53.8-15.4-53.8-38.6c0-24,22.9-40,57.5-40c25.3,0,42,8.9,42,22.1c0,15.6-28.5,14.8-28.5,29.6
			C93.9-14.5,101.7-12.8,101.7-6.3z M107.8-54.6c0-3.6-2.9-6.5-6.5-6.5c-3.7,0-6.6,2.9-6.6,6.5c0,3.7,2.9,6.5,6.6,6.5
			C104.9-48.1,107.8-51,107.8-54.6z M80-67.1c-4.4,0-8.1,3.6-8.1,8c0,4.4,3.7,8,8.1,8c4.4,0,8-3.6,8-8C88-63.5,84.5-67.1,80-67.1z
			 M56.4-63.2c-5.5,0-9.9,4.2-9.9,9.7c0,5.5,4.4,9.9,9.9,9.9c5.4,0,9.8-4.3,9.8-9.9C66.2-58.9,61.8-63.2,56.4-63.2z M39.4-44.5
			c-4.4,0-8,3.6-8,7.9c0,4.4,3.6,8.1,8,8.1c4.4,0,7.9-3.7,7.9-8.1C47.3-41,43.8-44.5,39.4-44.5z"/>
		<path d="M86.5-21.1c0,8.2-6.1,14.3-14.4,14.3c-7.9,0-14.3-6.4-14.3-14.3s6.4-14.4,14.3-14.4S86.5-29.1,86.5-21.1z"/>
	</g>
	<g id="Semibold-M" transform="matrix(1 0 0 1 1972.49 1126)">
		<path d="M37.2-44.5c-4.4,0-8.1,3.5-8.1,8c0,4.4,3.7,8.1,8.1,8.1c4.4,0,8-3.7,8-8.1C45.2-41,41.7-44.5,37.2-44.5z M100.2-61.4
			c-3.7,0-6.6,2.9-6.6,6.5c0,3.7,2.9,6.6,6.6,6.6c3.6,0,6.6-2.9,6.6-6.6C106.7-58.5,103.8-61.4,100.2-61.4z M54.5-63.6
			c-5.6,0-10.1,4.3-10.1,9.9c0,5.6,4.5,10,10.1,10c5.5,0,10-4.4,10-10C64.5-59.2,60-63.6,54.5-63.6z M78.6-67.5
			c-4.4,0-8.2,3.6-8.2,8.1c0,4.5,3.7,8.1,8.2,8.1c4.5,0,8.1-3.6,8.1-8.1C86.6-63.9,83.1-67.5,78.6-67.5z M100.2-61.4
			c-3.7,0-6.6,2.9-6.6,6.5c0,3.7,2.9,6.6,6.6,6.6c3.6,0,6.6-2.9,6.6-6.6C106.7-58.5,103.8-61.4,100.2-61.4z M78.6-67.5
			c-4.4,0-8.2,3.6-8.2,8.1c0,4.5,3.7,8.1,8.2,8.1c4.5,0,8.1-3.6,8.1-8.1C86.6-63.9,83.1-67.5,78.6-67.5z M54.5-63.6
			c-5.6,0-10.1,4.3-10.1,9.9c0,5.6,4.5,10,10.1,10c5.5,0,10-4.4,10-10C64.5-59.2,60-63.6,54.5-63.6z M37.2-44.5
			c-4.4,0-8.1,3.5-8.1,8c0,4.4,3.7,8.1,8.1,8.1c4.4,0,8-3.7,8-8.1C45.2-41,41.7-44.5,37.2-44.5z M132.8-52.4c0-21-21.8-35-54.2-35
			c-41.8,0-69.9,21.4-69.9,52.5c0,30.5,26.7,51,66.2,51c22.5,0,37.6-8,37.6-20.1c0-10.2-8.1-12.2-8.1-18.1
			C104.4-30.1,132.8-31.2,132.8-52.4z M100.3-6c0,6.1-10.1,10.1-25.4,10.1c-32.7,0-54.2-15.6-54.2-39c0-24.3,22.9-40.5,57.9-40.5
			c25.4,0,42.1,9.2,42.1,23c0,16.1-28.5,14.8-28.5,29.5C92.3-14.3,100.3-12.3,100.3-6z M106.7-54.9c0-3.6-2.9-6.5-6.6-6.5
			c-3.7,0-6.6,2.9-6.6,6.5c0,3.7,2.9,6.6,6.6,6.6C103.8-48.3,106.7-51.2,106.7-54.9z M78.6-67.5c-4.4,0-8.2,3.6-8.2,8.1
			c0,4.5,3.7,8.1,8.2,8.1c4.5,0,8.1-3.6,8.1-8.1C86.6-63.9,83.1-67.5,78.6-67.5z M54.5-63.6c-5.6,0-10.1,4.3-10.1,9.9
			c0,5.6,4.5,10,10.1,10c5.5,0,10-4.4,10-10C64.5-59.2,60-63.6,54.5-63.6z M37.2-44.5c-4.4,0-8.1,3.5-8.1,8c0,4.4,3.7,8.1,8.1,8.1
			c4.4,0,8-3.7,8-8.1C45.2-41,41.7-44.5,37.2-44.5z"/>
		<path d="M84.7-20.8c0,8-6.1,14.1-14.1,14.1c-7.7,0-14-6.3-14-14.1c0-7.7,6.3-14,14-14C78.3-34.9,84.7-28.5,84.7-20.8z"/>
	</g>
	<g id="Medium-M" transform="matrix(1 0 0 1 1677.2 1126)">
		<path d="M35.6-44.5c-4.4,0-8.1,3.6-8.1,8c0,4.4,3.7,8.1,8.1,8.1c4.4,0,8.1-3.7,8.1-8.1C43.6-40.9,40-44.5,35.6-44.5z M99.4-61.7
			c-3.7,0-6.7,3-6.7,6.6c0,3.7,3,6.6,6.7,6.6c3.6,0,6.5-2.9,6.5-6.6C106-58.7,103-61.7,99.4-61.7z M53.1-63.9
			c-5.6,0-10.2,4.5-10.2,10c0,5.7,4.5,10.1,10.2,10.1c5.6,0,10.1-4.4,10.1-10.1C63.2-59.4,58.6-63.9,53.1-63.9z M77.4-67.8
			c-4.5,0-8.2,3.6-8.2,8.2c0,4.5,3.7,8.1,8.2,8.1c4.5,0,8.2-3.6,8.2-8.1C85.6-64.2,82-67.8,77.4-67.8z M99.4-61.7
			c-3.7,0-6.7,3-6.7,6.6c0,3.7,3,6.6,6.7,6.6c3.6,0,6.5-2.9,6.5-6.6C106-58.7,103-61.7,99.4-61.7z M77.4-67.8
			c-4.5,0-8.2,3.6-8.2,8.2c0,4.5,3.7,8.1,8.2,8.1c4.5,0,8.2-3.6,8.2-8.1C85.6-64.2,82-67.8,77.4-67.8z M53.1-63.9
			c-5.6,0-10.2,4.5-10.2,10c0,5.7,4.5,10.1,10.2,10.1c5.6,0,10.1-4.4,10.1-10.1C63.2-59.4,58.6-63.9,53.1-63.9z M35.6-44.5
			c-4.4,0-8.1,3.6-8.1,8c0,4.4,3.7,8.1,8.1,8.1c4.4,0,8.1-3.7,8.1-8.1C43.6-40.9,40-44.5,35.6-44.5z M130-52.1
			c0-20.5-21.2-34.1-52.7-34.1c-41,0-68.6,20.8-68.6,51.3c0,29.7,26.2,49.7,64.9,49.7c21.7,0,36.1-7.7,36.1-19.2
			c0-10-8.2-12-8.2-17.8C101.6-30.1,130-31.4,130-52.1z M99.3-5.8c0,6.2-10.2,10.2-25.6,10.2c-32.8,0-54.5-15.7-54.5-39.2
			c0-24.6,23-40.9,58.1-40.9c25.5,0,42.3,9.6,42.3,23.7c0,16.5-28.5,14.8-28.5,29.5C91.1-14.1,99.3-11.8,99.3-5.8z M99.4-48.4
			c3.6,0,6.5-2.9,6.5-6.6c0-3.7-2.9-6.6-6.5-6.6c-3.7,0-6.7,3-6.7,6.6C92.7-51.4,95.7-48.4,99.4-48.4z M77.4-67.8
			c-4.5,0-8.2,3.6-8.2,8.2c0,4.5,3.7,8.1,8.2,8.1c4.5,0,8.2-3.6,8.2-8.1C85.6-64.2,82-67.8,77.4-67.8z M53.1-63.9
			c-5.6,0-10.2,4.5-10.2,10c0,5.7,4.5,10.1,10.2,10.1c5.6,0,10.1-4.4,10.1-10.1C63.2-59.4,58.6-63.9,53.1-63.9z M35.6-44.5
			c-4.4,0-8.1,3.6-8.1,8c0,4.4,3.7,8.1,8.1,8.1c4.4,0,8.1-3.7,8.1-8.1C43.6-40.9,40-44.5,35.6-44.5z"/>
		<path d="M83.2-20.6c0,7.7-6.1,13.8-13.8,13.8c-7.6,0-13.8-6.2-13.8-13.8c0-7.6,6.2-13.8,13.8-13.8C77.1-34.4,83.2-28.1,83.2-20.6z
			"/>
	</g>
	<g id="Regular-M" transform="matrix(1 0 0 1 1382.29 1126)">
		<path d="M33.4-44.5c-4.4,0-8.1,3.6-8.1,8.1c0,4.5,3.7,8.2,8.1,8.2c4.5,0,8.1-3.7,8.1-8.2C41.5-40.9,37.9-44.5,33.4-44.5z
			 M98.3-61.9c-3.7,0-6.7,3-6.7,6.6c0,3.7,3,6.7,6.7,6.7c3.7,0,6.6-3,6.6-6.7C104.9-58.9,101.9-61.9,98.3-61.9z M51.3-64.2
			c-5.8,0-10.4,4.5-10.4,10.1c0,5.8,4.6,10.3,10.4,10.3c5.6,0,10.2-4.5,10.2-10.3C61.5-59.7,56.8-64.2,51.3-64.2z M76-68.2
			c-4.5,0-8.3,3.7-8.3,8.2c0,4.6,3.8,8.2,8.3,8.2c4.6,0,8.2-3.7,8.2-8.2C84.2-64.5,80.6-68.2,76-68.2z M98.3-61.9
			c-3.7,0-6.7,3-6.7,6.6c0,3.7,3,6.7,6.7,6.7c3.7,0,6.6-3,6.6-6.7C104.9-58.9,101.9-61.9,98.3-61.9z M76-68.2
			c-4.5,0-8.3,3.7-8.3,8.2c0,4.6,3.8,8.2,8.3,8.2c4.6,0,8.2-3.7,8.2-8.2C84.2-64.5,80.6-68.2,76-68.2z M51.3-64.2
			c-5.8,0-10.4,4.5-10.4,10.1c0,5.8,4.6,10.3,10.4,10.3c5.6,0,10.2-4.5,10.2-10.3C61.5-59.7,56.8-64.2,51.3-64.2z M33.4-44.5
			c-4.4,0-8.1,3.6-8.1,8.1c0,4.5,3.7,8.2,8.1,8.2c4.5,0,8.1-3.7,8.1-8.2C41.5-40.9,37.9-44.5,33.4-44.5z M126.4-51.7
			c0-19.8-20.5-32.9-50.8-32.9c-39.9,0-66.8,19.9-66.8,49.8c0,28.7,25.5,48,63.2,48c20.6,0,34.3-7.3,34.3-18
			c0-9.6-8.2-11.8-8.2-17.4C98-30.1,126.4-31.6,126.4-51.7z M97.8-5.5c0,6.2-10.2,10.3-25.9,10.3c-33.1,0-54.8-15.9-54.8-39.7
			c0-24.9,23.1-41.4,58.5-41.4c25.6,0,42.5,10,42.5,24.6c0,17-28.6,14.8-28.6,29.5C89.4-13.9,97.8-11.2,97.8-5.5z M98.3-48.6
			c3.7,0,6.6-3,6.6-6.7c0-3.7-2.9-6.6-6.6-6.6c-3.7,0-6.7,3-6.7,6.6C91.6-51.6,94.6-48.6,98.3-48.6z M76-68.2
			c-4.5,0-8.3,3.7-8.3,8.2c0,4.6,3.8,8.2,8.3,8.2c4.6,0,8.2-3.7,8.2-8.2C84.2-64.5,80.6-68.2,76-68.2z M51.3-64.2
			c-5.8,0-10.4,4.5-10.4,10.1c0,5.8,4.6,10.3,10.4,10.3c5.6,0,10.2-4.5,10.2-10.3C61.5-59.7,56.8-64.2,51.3-64.2z M33.4-44.5
			c-4.4,0-8.1,3.6-8.1,8.1c0,4.5,3.7,8.2,8.1,8.2c4.5,0,8.1-3.7,8.1-8.2C41.5-40.9,37.9-44.5,33.4-44.5z"/>
		<path d="M81.4-20.3c0,7.5-6.1,13.6-13.5,13.6c-7.4,0-13.5-6.1-13.5-13.6c0-7.4,6.1-13.5,13.5-13.5C75.3-33.7,81.4-27.6,81.4-20.3z
			"/>
	</g>
	<g id="Light-M" transform="matrix(1 0 0 1 1086.58 1126)">
		<path d="M32.4-43.9c-4.2,0-7.6,3.4-7.6,7.5s3.4,7.6,7.6,7.6s7.5-3.5,7.5-7.6C39.9-40.6,36.6-43.9,32.4-43.9z M97.3-61.5
			c-3.5,0-6.2,2.8-6.2,6.2c0,3.5,2.8,6.2,6.2,6.2c3.4,0,6.2-2.7,6.2-6.2C103.5-58.7,100.7-61.5,97.3-61.5z M50.2-64
			c-5.6,0-10.2,4.4-10.2,9.9c0,5.7,4.5,10.1,10.2,10.1c5.6,0,10.1-4.4,10.1-10.1C60.3-59.6,55.8-64,50.2-64z M75-67.8
			c-4.3,0-7.9,3.5-7.9,7.8c0,4.3,3.6,7.8,7.9,7.8c4.4,0,7.8-3.5,7.8-7.8C82.8-64.3,79.4-67.8,75-67.8z M97.3-61.5
			c-3.5,0-6.2,2.8-6.2,6.2c0,3.5,2.8,6.2,6.2,6.2c3.4,0,6.2-2.7,6.2-6.2C103.5-58.7,100.7-61.5,97.3-61.5z M75-67.8
			c-4.3,0-7.9,3.5-7.9,7.8c0,4.3,3.6,7.8,7.9,7.8c4.4,0,7.8-3.5,7.8-7.8C82.8-64.3,79.4-67.8,75-67.8z M50.2-64
			c-5.6,0-10.2,4.4-10.2,9.9c0,5.7,4.5,10.1,10.2,10.1c5.6,0,10.1-4.4,10.1-10.1C60.3-59.6,55.8-64,50.2-64z M32.4-43.9
			c-4.2,0-7.6,3.4-7.6,7.5s3.4,7.6,7.6,7.6s7.5-3.5,7.5-7.6C39.9-40.6,36.6-43.9,32.4-43.9z M124.4-51.7c0-19.2-20-31.9-49.8-31.9
			c-39.3,0-65.8,19.5-65.8,48.8c0,28.1,25.1,47,62.2,47c19.9,0,33.3-6.9,33.3-17c0-9.4-8.3-11.1-8.3-17.3
			C96-31.2,124.4-31.5,124.4-51.7z M97.8-5.5C97.8,1.4,87.4,5.8,71,5.8c-33.7,0-55.9-16.3-55.9-40.7c0-25.5,23.6-42.4,59.5-42.4
			c26.2,0,43.5,10.3,43.5,25.5c0,17.7-28.6,15.1-28.6,29.6C89.5-13.9,97.8-11.6,97.8-5.5z M97.3-49.1c3.4,0,6.2-2.7,6.2-6.2
			c0-3.4-2.8-6.2-6.2-6.2c-3.5,0-6.2,2.8-6.2,6.2C91.1-51.8,93.8-49.1,97.3-49.1z M75-67.8c-4.3,0-7.9,3.5-7.9,7.8
			c0,4.3,3.6,7.8,7.9,7.8c4.4,0,7.8-3.5,7.8-7.8C82.8-64.3,79.4-67.8,75-67.8z M50.2-64c-5.6,0-10.2,4.4-10.2,9.9
			c0,5.7,4.5,10.1,10.2,10.1c5.6,0,10.1-4.4,10.1-10.1C60.3-59.6,55.8-64,50.2-64z M32.4-43.9c-4.2,0-7.6,3.4-7.6,7.5
			s3.4,7.6,7.6,7.6s7.5-3.5,7.5-7.6C39.9-40.6,36.6-43.9,32.4-43.9z"/>
		<path d="M81-20.3c0,7.8-6.3,14.1-14,14.1c-7.7,0-14.1-6.3-14.1-14.1c0-7.7,6.4-14,14.1-14C74.7-34.3,81-27.9,81-20.3z"/>
	</g>
	<g id="Thin-M" transform="matrix(1 0 0 1 791.188 1126)">
		<path d="M31.1-43.2c-3.8,0-6.8,3-6.8,6.8s3.1,6.9,6.8,6.9c3.7,0,6.8-3.1,6.8-6.9C37.9-40.2,34.9-43.2,31.1-43.2z M96-60.8
			c-3.1,0-5.7,2.5-5.7,5.6c0,3.1,2.5,5.6,5.7,5.6c3,0,5.5-2.4,5.5-5.6C101.5-58.3,99-60.8,96-60.8z M48.9-63.8c-5.5,0-10,4.2-10,9.7
			c0,5.5,4.4,9.9,10,9.9c5.5,0,9.8-4.3,9.8-9.9C58.7-59.5,54.3-63.8,48.9-63.8z M73.7-67.2c-4,0-7.4,3.3-7.4,7.3
			c0,4.1,3.3,7.3,7.4,7.3c4.1,0,7.3-3.2,7.3-7.3C81-64,77.8-67.2,73.7-67.2z M96-60.8c-3.1,0-5.7,2.5-5.7,5.6c0,3.1,2.5,5.6,5.7,5.6
			c3,0,5.5-2.4,5.5-5.6C101.5-58.3,99-60.8,96-60.8z M73.7-67.2c-4,0-7.4,3.3-7.4,7.3c0,4.1,3.3,7.3,7.4,7.3c4.1,0,7.3-3.2,7.3-7.3
			C81-64,77.8-67.2,73.7-67.2z M48.9-63.8c-5.5,0-10,4.2-10,9.7c0,5.5,4.4,9.9,10,9.9c5.5,0,9.8-4.3,9.8-9.9
			C58.7-59.5,54.3-63.8,48.9-63.8z M31.1-43.2c-3.8,0-6.8,3-6.8,6.8s3.1,6.9,6.8,6.9c3.7,0,6.8-3.1,6.8-6.9
			C37.9-40.2,34.9-43.2,31.1-43.2z M121.7-51.7c0-18.4-19.4-30.6-48.5-30.6c-38.7,0-64.5,19-64.5,47.5c0,27.3,24.5,45.7,60.9,45.7
			c19,0,32-6.4,32-15.7c0-9.2-8.4-10.3-8.4-17.2C93.2-32.6,121.7-31.4,121.7-51.7z M97.9-5.5c0,7.8-10.8,12.6-28.2,12.6
			c-34.3,0-57.2-16.8-57.2-42c0-26.3,24.2-43.7,60.8-43.7c26.9,0,44.8,10.7,44.8,26.9c0,18.5-28.6,15.7-28.6,29.9
			C89.5-13.8,97.9-12.1,97.9-5.5z M101.5-55.3c0-3.1-2.5-5.6-5.5-5.6c-3.1,0-5.7,2.5-5.7,5.6c0,3.1,2.5,5.6,5.7,5.6
			C99.1-49.7,101.5-52.1,101.5-55.3z M73.7-67.2c-4,0-7.4,3.3-7.4,7.3c0,4.1,3.3,7.3,7.4,7.3c4.1,0,7.3-3.2,7.3-7.3
			C81-64,77.8-67.2,73.7-67.2z M48.9-63.8c-5.5,0-10,4.2-10,9.7c0,5.5,4.4,9.9,10,9.9c5.5,0,9.8-4.3,9.8-9.9
			C58.7-59.5,54.3-63.8,48.9-63.8z M31.1-43.2c-3.8,0-6.8,3-6.8,6.8s3.1,6.9,6.8,6.9c3.7,0,6.8-3.1,6.8-6.9
			C37.9-40.2,34.9-43.2,31.1-43.2z"/>
		<path d="M80.3-20.3c0,8.2-6.6,14.7-14.7,14.7c-8.1,0-14.7-6.6-14.7-14.7c0-8.1,6.6-14.7,14.7-14.7C73.7-35,80.3-28.3,80.3-20.3z"
			/>
	</g>
	<g id="Ultralight-M" transform="matrix(1 0 0 1 495.16 1126)">
		<path d="M30.4-42.8c-3.5,0-6.5,2.8-6.5,6.4c0,3.5,3,6.5,6.5,6.5c3.5,0,6.4-3,6.4-6.5C36.8-40,34-42.8,30.4-42.8z M95.4-60.6
			c-3,0-5.4,2.4-5.4,5.3s2.3,5.3,5.4,5.3c2.9,0,5.2-2.3,5.2-5.3C100.5-58.2,98.2-60.6,95.4-60.6z M48.2-63.7c-5.5,0-9.8,4.2-9.8,9.6
			c0,5.4,4.3,9.7,9.8,9.7c5.4,0,9.7-4.3,9.7-9.7C58-59.4,53.6-63.7,48.2-63.7z M73-66.9c-3.9,0-7.1,3.2-7.1,7c0,3.9,3.2,7,7.1,7
			c4,0,7-3.1,7-7C80-63.9,77-66.9,73-66.9z M95.4-60.6c-3,0-5.4,2.4-5.4,5.3s2.3,5.3,5.4,5.3c2.9,0,5.2-2.3,5.2-5.3
			C100.5-58.2,98.2-60.6,95.4-60.6z M73-66.9c-3.9,0-7.1,3.2-7.1,7c0,3.9,3.2,7,7.1,7c4,0,7-3.1,7-7C80-63.9,77-66.9,73-66.9z
			 M48.2-63.7c-5.5,0-9.8,4.2-9.8,9.6c0,5.4,4.3,9.7,9.8,9.7c5.4,0,9.7-4.3,9.7-9.7C58-59.4,53.6-63.7,48.2-63.7z M30.4-42.8
			c-3.5,0-6.5,2.8-6.5,6.4c0,3.5,3,6.5,6.5,6.5c3.5,0,6.4-3,6.4-6.5C36.8-40,34-42.8,30.4-42.8z M120.4-51.7c0-18-19-29.9-47.8-29.9
			c-38.3,0-63.8,18.8-63.8,46.8c0,27,24.2,45.1,60.2,45.1c18.6,0,31.3-6.2,31.3-15c0-9.1-8.4-9.8-8.4-17.1
			C91.9-33.3,120.4-31.3,120.4-51.7z M89.4-21.7c0,7.9,8.4,9.4,8.4,16.3c0,8.2-11,13.3-28.9,13.3c-34.7,0-57.8-17.1-57.8-42.7
			c0-26.7,24.5-44.4,61.4-44.4c27.3,0,45.5,11,45.5,27.5C118-32.9,89.4-35.7,89.4-21.7z M95.4-60.6c-3,0-5.4,2.4-5.4,5.3
			s2.3,5.3,5.4,5.3c2.9,0,5.2-2.3,5.2-5.3C100.5-58.2,98.2-60.6,95.4-60.6z M73-66.9c-3.9,0-7.1,3.2-7.1,7c0,3.9,3.2,7,7.1,7
			c4,0,7-3.1,7-7C80-63.9,77-66.9,73-66.9z M48.2-63.7c-5.5,0-9.8,4.2-9.8,9.6c0,5.4,4.3,9.7,9.8,9.7c5.4,0,9.7-4.3,9.7-9.7
			C58-59.4,53.6-63.7,48.2-63.7z M30.4-42.8c-3.5,0-6.5,2.8-6.5,6.4c0,3.5,3,6.5,6.5,6.5c3.5,0,6.4-3,6.4-6.5
			C36.8-40,34-42.8,30.4-42.8z"/>
		<path d="M80-20.3c0,8.4-6.7,15.1-15.1,15.1c-8.3,0-15-6.7-15-15.1c0-8.3,6.7-15,15-15C73.3-35.3,80-28.6,80-20.3z"/>
	</g>
	<g id="Black-S" transform="matrix(1 0 0 1 2872.73 696)">
		<path d="M35.3-42.6c-3.4,0-6.2,2.7-6.2,6.1c0,3.4,2.8,6.2,6.2,6.2c3.4,0,6.1-2.8,6.1-6.2C41.4-39.8,38.7-42.6,35.3-42.6z M81.6-55
			c-2.8,0-5,2.2-5,5c0,2.8,2.2,5,5,5s5-2.2,5-5C86.6-52.7,84.4-55,81.6-55z M48-56.4c-4.1,0-7.4,3.2-7.4,7.3c0,4.2,3.3,7.4,7.4,7.4
			c4.1,0,7.4-3.3,7.4-7.4C55.4-53.2,52.1-56.4,48-56.4z M65.7-59.4c-3.4,0-6.1,2.7-6.1,6.1c0,3.4,2.8,6.1,6.1,6.1
			c3.4,0,6.1-2.7,6.1-6.1C71.8-56.7,69.1-59.4,65.7-59.4z M81.6-55c-2.8,0-5,2.2-5,5c0,2.8,2.2,5,5,5s5-2.2,5-5
			C86.6-52.7,84.4-55,81.6-55z M65.7-59.4c-3.4,0-6.1,2.7-6.1,6.1c0,3.4,2.8,6.1,6.1,6.1c3.4,0,6.1-2.7,6.1-6.1
			C71.8-56.7,69.1-59.4,65.7-59.4z M48-56.4c-4.1,0-7.4,3.2-7.4,7.3c0,4.2,3.3,7.4,7.4,7.4c4.1,0,7.4-3.3,7.4-7.4
			C55.4-53.2,52.1-56.4,48-56.4z M35.3-42.6c-3.4,0-6.2,2.7-6.2,6.1c0,3.4,2.8,6.2,6.2,6.2c3.4,0,6.1-2.8,6.1-6.2
			C41.4-39.8,38.7-42.6,35.3-42.6z M114.5-49.8c0-18.5-19.2-30.8-48-30.8c-35.8,0-59.7,19.2-59.7,45.7C6.8-8.1,29.5,9.8,63.6,9.8
			c20.8,0,34.8-7.6,34.8-19c0-9.1-6.1-10.4-6.1-15.4C92.2-31.3,114.5-31.4,114.5-49.8z M82.6-13.2c0,4.6-7.6,7.6-19,7.6
			c-24.8,0-41.4-11.7-41.4-29.3c0-18.2,17.7-30.3,44.3-30.3c19.6,0,32.6,6.2,32.6,15.4c0,11.1-22.2,11.6-22.2,23.2
			C76.9-19.5,82.6-18.8,82.6-13.2z M86.6-49.9c0-2.8-2.2-5-5-5s-5,2.2-5,5c0,2.8,2.2,5,5,5S86.6-47.1,86.6-49.9z M65.7-59.4
			c-3.4,0-6.1,2.7-6.1,6.1c0,3.4,2.8,6.1,6.1,6.1c3.4,0,6.1-2.7,6.1-6.1C71.8-56.7,69.1-59.4,65.7-59.4z M48-56.4
			c-4.1,0-7.4,3.2-7.4,7.3c0,4.2,3.3,7.4,7.4,7.4c4.1,0,7.4-3.3,7.4-7.4C55.4-53.2,52.1-56.4,48-56.4z M35.3-42.6
			c-3.4,0-6.2,2.7-6.2,6.1c0,3.4,2.8,6.2,6.2,6.2c3.4,0,6.1-2.8,6.1-6.2C41.4-39.8,38.7-42.6,35.3-42.6z"/>
		<path d="M71.5-24.9c0,7.1-4.7,11.8-11.9,11.8c-6.5,0-11.8-5.3-11.8-11.8c0-6.5,5.3-11.8,11.8-11.8C66.2-36.7,71.5-31.4,71.5-24.9z
			"/>
	</g>
	<g id="Heavy-S" transform="matrix(1 0 0 1 2577.73 696)">
		<path d="M33.2-42.6c-3.4,0-6.2,2.8-6.2,6.2c0,3.4,2.8,6.3,6.2,6.3c3.5,0,6.2-2.9,6.2-6.3C39.5-39.8,36.7-42.6,33.2-42.6z
			 M46.2-56.8c-4.2,0-7.6,3.3-7.6,7.5c0,4.2,3.4,7.6,7.6,7.6c4.2,0,7.6-3.3,7.6-7.6C53.9-53.5,50.4-56.8,46.2-56.8z M64.4-59.8
			c-3.4,0-6.2,2.7-6.2,6.2c0,3.4,2.8,6.2,6.2,6.2c3.5,0,6.2-2.8,6.2-6.2C70.6-57.1,67.8-59.8,64.4-59.8z M80.6-55.3
			c-2.8,0-5.1,2.3-5.1,5.1c0,2.9,2.3,5.1,5.1,5.1c2.8,0,5.1-2.2,5.1-5.1C85.7-53,83.4-55.3,80.6-55.3z M80.6-55.3
			c-2.8,0-5.1,2.3-5.1,5.1c0,2.9,2.3,5.1,5.1,5.1c2.8,0,5.1-2.2,5.1-5.1C85.7-53,83.4-55.3,80.6-55.3z M64.4-59.8
			c-3.4,0-6.2,2.7-6.2,6.2c0,3.4,2.8,6.2,6.2,6.2c3.5,0,6.2-2.8,6.2-6.2C70.6-57.1,67.8-59.8,64.4-59.8z M46.2-56.8
			c-4.2,0-7.6,3.3-7.6,7.5c0,4.2,3.4,7.6,7.6,7.6c4.2,0,7.6-3.3,7.6-7.6C53.9-53.5,50.4-56.8,46.2-56.8z M33.2-42.6
			c-3.4,0-6.2,2.8-6.2,6.2c0,3.4,2.8,6.3,6.2,6.3c3.5,0,6.2-2.9,6.2-6.3C39.5-39.8,36.7-42.6,33.2-42.6z M111.1-49.4
			c0-17.9-18.5-29.7-46.2-29.7c-34.8,0-58.1,18.4-58.1,44.2C6.8-9,29,8.2,62,8.2c19.8,0,33-7.2,33-18c0-8.7-6.1-10.2-6.1-15
			C88.8-31.2,111.1-31.6,111.1-49.4z M81.1-12.9c0,4.6-7.7,7.6-19.2,7.6c-25,0-41.6-11.9-41.6-29.6c0-18.4,17.8-30.7,44.5-30.7
			c19.6,0,32.7,6.5,32.7,16.2c0,11.5-22.3,11.5-22.3,23.2C75.3-19.2,81.1-18.3,81.1-12.9z M85.7-50.2c0-2.8-2.3-5.1-5.1-5.1
			c-2.8,0-5.1,2.3-5.1,5.1c0,2.9,2.3,5.1,5.1,5.1C83.4-45.1,85.7-47.3,85.7-50.2z M64.4-59.8c-3.4,0-6.2,2.7-6.2,6.2
			c0,3.4,2.8,6.2,6.2,6.2c3.5,0,6.2-2.8,6.2-6.2C70.6-57.1,67.8-59.8,64.4-59.8z M46.2-56.8c-4.2,0-7.6,3.3-7.6,7.5
			c0,4.2,3.4,7.6,7.6,7.6c4.2,0,7.6-3.3,7.6-7.6C53.9-53.5,50.4-56.8,46.2-56.8z M33.2-42.6c-3.4,0-6.2,2.8-6.2,6.2
			c0,3.4,2.8,6.3,6.2,6.3c3.5,0,6.2-2.9,6.2-6.3C39.5-39.8,36.7-42.6,33.2-42.6z M33.2-42.6c-3.4,0-6.2,2.8-6.2,6.2
			c0,3.4,2.8,6.3,6.2,6.3c3.5,0,6.2-2.9,6.2-6.3C39.5-39.8,36.7-42.6,33.2-42.6z M46.2-56.8c-4.2,0-7.6,3.3-7.6,7.5
			c0,4.2,3.4,7.6,7.6,7.6c4.2,0,7.6-3.3,7.6-7.6C53.9-53.5,50.4-56.8,46.2-56.8z M64.4-59.8c-3.4,0-6.2,2.7-6.2,6.2
			c0,3.4,2.8,6.2,6.2,6.2c3.5,0,6.2-2.8,6.2-6.2C70.6-57.1,67.8-59.8,64.4-59.8z M80.6-55.3c-2.8,0-5.1,2.3-5.1,5.1
			c0,2.9,2.3,5.1,5.1,5.1c2.8,0,5.1-2.2,5.1-5.1C85.7-53,83.4-55.3,80.6-55.3z M64.4-59.8c-3.4,0-6.2,2.7-6.2,6.2
			c0,3.4,2.8,6.2,6.2,6.2c3.5,0,6.2-2.8,6.2-6.2C70.6-57.1,67.8-59.8,64.4-59.8z M46.2-56.8c-4.2,0-7.6,3.3-7.6,7.5
			c0,4.2,3.4,7.6,7.6,7.6c4.2,0,7.6-3.3,7.6-7.6C53.9-53.5,50.4-56.8,46.2-56.8z M80.6-55.3c-2.8,0-5.1,2.3-5.1,5.1
			c0,2.9,2.3,5.1,5.1,5.1c2.8,0,5.1-2.2,5.1-5.1C85.7-53,83.4-55.3,80.6-55.3z M33.2-42.6c-3.4,0-6.2,2.8-6.2,6.2
			c0,3.4,2.8,6.3,6.2,6.3c3.5,0,6.2-2.9,6.2-6.3C39.5-39.8,36.7-42.6,33.2-42.6z"/>
		<path d="M69.7-24.6c0,6.7-4.7,11.5-11.5,11.5c-6.3,0-11.4-5.1-11.4-11.5c0-6.3,5.1-11.5,11.4-11.5C64.6-36,69.7-30.9,69.7-24.6z"
			/>
	</g>
	<g id="Bold-S" transform="matrix(1 0 0 1 2282.95 696)">
		<path d="M31-42.7c-3.5,0-6.4,2.8-6.4,6.3c0,3.5,2.9,6.5,6.4,6.5c3.5,0,6.4-3,6.4-6.5C37.4-39.8,34.5-42.7,31-42.7z M79.5-55.7
			c-2.9,0-5.3,2.3-5.3,5.2c0,2.9,2.3,5.2,5.3,5.2c2.9,0,5.2-2.3,5.2-5.2C84.8-53.3,82.4-55.7,79.5-55.7z M44.3-57.2
			c-4.3,0-7.8,3.4-7.8,7.7c0,4.4,3.5,7.8,7.8,7.8c4.2,0,7.8-3.4,7.8-7.8C52.1-53.8,48.5-57.2,44.3-57.2z M62.8-60.3
			c-3.5,0-6.4,2.8-6.4,6.3c0,3.6,2.9,6.4,6.4,6.4c3.6,0,6.4-2.8,6.4-6.4C69.2-57.5,66.4-60.3,62.8-60.3z M79.5-55.7
			c-2.9,0-5.3,2.3-5.3,5.2c0,2.9,2.3,5.2,5.3,5.2c2.9,0,5.2-2.3,5.2-5.2C84.8-53.3,82.4-55.7,79.5-55.7z M62.8-60.3
			c-3.5,0-6.4,2.8-6.4,6.3c0,3.6,2.9,6.4,6.4,6.4c3.6,0,6.4-2.8,6.4-6.4C69.2-57.5,66.4-60.3,62.8-60.3z M44.3-57.2
			c-4.3,0-7.8,3.4-7.8,7.7c0,4.4,3.5,7.8,7.8,7.8c4.2,0,7.8-3.4,7.8-7.8C52.1-53.8,48.5-57.2,44.3-57.2z M31-42.7
			c-3.5,0-6.4,2.8-6.4,6.3c0,3.5,2.9,6.5,6.4,6.5c3.5,0,6.4-3,6.4-6.5C37.4-39.8,34.5-42.7,31-42.7z M107.2-49
			c0-17.1-17.7-28.5-44.1-28.5C29.4-77.5,6.8-60,6.8-35c0,24.8,21.5,41.4,53.4,41.4c18.6,0,31.1-6.7,31.1-16.8
			c0-8.3-6.2-10-6.2-14.5C85-31,107.2-31.9,107.2-49z M79.6-12.6c0,4.6-7.8,7.6-19.4,7.6c-25.2,0-41.9-12-41.9-30
			c0-18.7,17.8-31.1,44.8-31.1c19.7,0,32.7,6.9,32.7,17.1c0,12.1-22.3,11.5-22.3,23.1C73.5-19,79.6-17.6,79.6-12.6z M84.8-50.4
			c0-2.9-2.3-5.2-5.2-5.2c-2.9,0-5.3,2.3-5.3,5.2c0,2.9,2.3,5.2,5.3,5.2C82.4-45.2,84.8-47.5,84.8-50.4z M62.8-60.3
			c-3.5,0-6.4,2.8-6.4,6.3c0,3.6,2.9,6.4,6.4,6.4c3.6,0,6.4-2.8,6.4-6.4C69.2-57.5,66.4-60.3,62.8-60.3z M44.3-57.2
			c-4.3,0-7.8,3.4-7.8,7.7c0,4.4,3.5,7.8,7.8,7.8c4.2,0,7.8-3.4,7.8-7.8C52.1-53.8,48.5-57.2,44.3-57.2z M31-42.7
			c-3.5,0-6.4,2.8-6.4,6.3c0,3.5,2.9,6.5,6.4,6.5c3.5,0,6.4-3,6.4-6.5C37.4-39.8,34.5-42.7,31-42.7z"/>
		<path d="M67.8-24.2c0,6.4-4.7,11.1-11.1,11.1c-6.1,0-11-5-11-11.1c0-6.1,4.9-11,11-11C62.8-35.2,67.8-30.3,67.8-24.2z"/>
	</g>
	<g id="Semibold-S" transform="matrix(1 0 0 1 1987.55 696)">
		<path d="M29.4-42.7c-3.6,0-6.5,2.9-6.5,6.4s2.9,6.5,6.5,6.5c3.6,0,6.5-3,6.5-6.5S33-42.7,29.4-42.7z M78.8-55.9
			c-3,0-5.4,2.3-5.4,5.3c0,3,2.4,5.3,5.4,5.3c2.9,0,5.3-2.3,5.3-5.3C84.1-53.6,81.7-55.9,78.8-55.9z M43-57.5c-4.4,0-8,3.5-8,7.8
			c0,4.4,3.6,7.9,8,7.9c4.3,0,7.9-3.5,7.9-7.9C50.8-54.1,47.3-57.5,43-57.5z M61.8-60.6c-3.6,0-6.5,2.9-6.5,6.5
			c0,3.6,2.9,6.4,6.5,6.4c3.6,0,6.4-2.9,6.4-6.4C68.3-57.8,65.4-60.6,61.8-60.6z M78.8-55.9c-3,0-5.4,2.3-5.4,5.3
			c0,3,2.4,5.3,5.4,5.3c2.9,0,5.3-2.3,5.3-5.3C84.1-53.6,81.7-55.9,78.8-55.9z M61.8-60.6c-3.6,0-6.5,2.9-6.5,6.5
			c0,3.6,2.9,6.4,6.5,6.4c3.6,0,6.4-2.9,6.4-6.4C68.3-57.8,65.4-60.6,61.8-60.6z M43-57.5c-4.4,0-8,3.5-8,7.8c0,4.4,3.6,7.9,8,7.9
			c4.3,0,7.9-3.5,7.9-7.9C50.8-54.1,47.3-57.5,43-57.5z M29.4-42.7c-3.6,0-6.5,2.9-6.5,6.4s2.9,6.5,6.5,6.5c3.6,0,6.5-3,6.5-6.5
			S33-42.7,29.4-42.7z M104.6-48.6c0-16.7-17.2-27.7-42.8-27.7c-32.9,0-55,16.9-55,41.4c0,24.1,21,40.2,52.1,40.2
			c17.8,0,29.7-6.4,29.7-16c0-8.1-6.3-9.8-6.3-14.2C82.4-30.9,104.6-32.1,104.6-48.6z M78.5-12.3c0,4.5-7.8,7.6-19.5,7.6
			C33.6-4.7,16.8-16.8,16.8-35c0-18.9,17.8-31.4,45-31.4c19.8,0,32.8,7.2,32.8,17.7c0,12.4-22.3,11.4-22.3,23
			C72.3-18.8,78.5-17.1,78.5-12.3z M78.8-45.3c2.9,0,5.3-2.3,5.3-5.3c0-2.9-2.4-5.3-5.3-5.3c-3,0-5.4,2.3-5.4,5.3
			C73.4-47.7,75.8-45.3,78.8-45.3z M61.8-60.6c-3.6,0-6.5,2.9-6.5,6.5c0,3.6,2.9,6.4,6.5,6.4c3.6,0,6.4-2.9,6.4-6.4
			C68.3-57.8,65.4-60.6,61.8-60.6z M43-57.5c-4.4,0-8,3.5-8,7.8c0,4.4,3.6,7.9,8,7.9c4.3,0,7.9-3.5,7.9-7.9
			C50.8-54.1,47.3-57.5,43-57.5z M29.4-42.7c-3.6,0-6.5,2.9-6.5,6.4s2.9,6.5,6.5,6.5c3.6,0,6.5-3,6.5-6.5S33-42.7,29.4-42.7z"/>
		<path d="M66.4-23.9c0,6.2-4.7,10.8-10.8,10.8c-6,0-10.8-4.9-10.8-10.8c0-6,4.8-10.8,10.8-10.8C61.5-34.8,66.4-29.9,66.4-23.9z"/>
	</g>
	<g id="Medium-S" transform="matrix(1 0 0 1 1691.87 696)">
		<path d="M28.2-42.7c-3.6,0-6.6,2.9-6.6,6.5c0,3.6,3,6.6,6.6,6.6c3.6,0,6.5-3,6.5-6.6C34.7-39.8,31.8-42.7,28.2-42.7z M78.2-56.1
			c-3,0-5.4,2.4-5.4,5.4s2.4,5.4,5.4,5.4c2.9,0,5.3-2.4,5.3-5.4S81.2-56.1,78.2-56.1z M41.9-57.7c-4.4,0-8.1,3.5-8.1,7.9
			c0,4.5,3.6,8,8.1,8c4.3,0,8-3.5,8-8C49.9-54.2,46.3-57.7,41.9-57.7z M61-60.9c-3.6,0-6.6,2.9-6.6,6.5c0,3.6,3,6.5,6.6,6.5
			c3.6,0,6.5-2.9,6.5-6.5C67.6-58,64.7-60.9,61-60.9z M78.2-56.1c-3,0-5.4,2.4-5.4,5.4s2.4,5.4,5.4,5.4c2.9,0,5.3-2.4,5.3-5.4
			S81.2-56.1,78.2-56.1z M61-60.9c-3.6,0-6.6,2.9-6.6,6.5c0,3.6,3,6.5,6.6,6.5c3.6,0,6.5-2.9,6.5-6.5C67.6-58,64.7-60.9,61-60.9z
			 M41.9-57.7c-4.4,0-8.1,3.5-8.1,7.9c0,4.5,3.6,8,8.1,8c4.3,0,8-3.5,8-8C49.9-54.2,46.3-57.7,41.9-57.7z M28.2-42.7
			c-3.6,0-6.6,2.9-6.6,6.5c0,3.6,3,6.6,6.6,6.6c3.6,0,6.5-3,6.5-6.6C34.7-39.8,31.8-42.7,28.2-42.7z M102.5-48.4
			c0-16.3-16.8-27.1-41.6-27.1C28.6-75.5,6.8-59.1,6.8-35c0,23.5,20.7,39.3,51.2,39.3c17.2,0,28.7-6.2,28.7-15.4
			c0-7.9-6.4-9.7-6.4-14C80.4-30.8,102.5-32.3,102.5-48.4z M77.7-12.2c0,4.6-7.9,7.6-19.7,7.6C32.5-4.5,15.8-16.8,15.8-35
			c0-19,17.9-31.6,45.1-31.6c19.8,0,32.8,7.4,32.8,18.2c0,12.8-22.4,11.4-22.4,23C71.3-18.7,77.7-16.8,77.7-12.2z M78.2-45.4
			c2.9,0,5.3-2.4,5.3-5.4s-2.4-5.4-5.3-5.4c-3,0-5.4,2.4-5.4,5.4S75.2-45.4,78.2-45.4z M61-60.9c-3.6,0-6.6,2.9-6.6,6.5
			c0,3.6,3,6.5,6.6,6.5c3.6,0,6.5-2.9,6.5-6.5C67.6-58,64.7-60.9,61-60.9z M41.9-57.7c-4.4,0-8.1,3.5-8.1,7.9c0,4.5,3.6,8,8.1,8
			c4.3,0,8-3.5,8-8C49.9-54.2,46.3-57.7,41.9-57.7z M28.2-42.7c-3.6,0-6.6,2.9-6.6,6.5c0,3.6,3,6.6,6.6,6.6c3.6,0,6.5-3,6.5-6.6
			C34.7-39.8,31.8-42.7,28.2-42.7z"/>
		<path d="M65.4-23.7c0,6-4.7,10.6-10.6,10.6c-5.8,0-10.6-4.8-10.6-10.6c0-5.8,4.8-10.6,10.6-10.6C60.6-34.3,65.4-29.5,65.4-23.7z"
			/>
	</g>
	<g id="Regular-S" transform="matrix(1 0 0 1 1396.45 696)">
		<path d="M26.7-42.7c-3.7,0-6.6,2.9-6.6,6.6s3,6.7,6.6,6.7s6.6-3,6.6-6.7S30.3-42.7,26.7-42.7z M77.5-56.4c-3,0-5.5,2.5-5.5,5.5
			c0,3,2.5,5.5,5.5,5.5c3,0,5.4-2.4,5.4-5.5C82.9-53.9,80.5-56.4,77.5-56.4z M40.6-58c-4.5,0-8.2,3.5-8.2,8c0,4.6,3.7,8.1,8.2,8.1
			c4.4,0,8.1-3.5,8.1-8.1C48.7-54.5,45.1-58,40.6-58z M60-61.2c-3.7,0-6.7,3-6.7,6.6c0,3.7,3,6.6,6.7,6.6c3.7,0,6.6-3,6.6-6.6
			C66.7-58.2,63.7-61.2,60-61.2z M77.5-56.4c-3,0-5.5,2.5-5.5,5.5c0,3,2.5,5.5,5.5,5.5c3,0,5.4-2.4,5.4-5.5
			C82.9-53.9,80.5-56.4,77.5-56.4z M60-61.2c-3.7,0-6.7,3-6.7,6.6c0,3.7,3,6.6,6.7,6.6c3.7,0,6.6-3,6.6-6.6
			C66.7-58.2,63.7-61.2,60-61.2z M40.6-58c-4.5,0-8.2,3.5-8.2,8c0,4.6,3.7,8.1,8.2,8.1c4.4,0,8.1-3.5,8.1-8.1
			C48.7-54.5,45.1-58,40.6-58z M26.7-42.7c-3.7,0-6.6,2.9-6.6,6.6s3,6.7,6.6,6.7s6.6-3,6.6-6.7S30.3-42.7,26.7-42.7z M100-48.1
			c0-15.8-16.3-26.3-40.3-26.3C28.2-74.4,6.8-58.6,6.8-35c0,22.8,20.3,38.1,50,38.1c16.4,0,27.3-5.9,27.3-14.6
			c0-7.6-6.5-9.5-6.5-13.7C77.7-30.7,100-32.5,100-48.1z M76.7-11.9c0,4.5-7.9,7.6-19.8,7.6C31.2-4.3,14.4-16.6,14.4-35
			c0-19.2,17.9-31.9,45.3-31.9c19.8,0,32.8,7.6,32.8,18.8c0,13.1-22.4,11.3-22.4,23C70.1-18.5,76.7-16.3,76.7-11.9z M77.5-45.5
			c3,0,5.4-2.4,5.4-5.5c0-3-2.4-5.5-5.4-5.5c-3,0-5.5,2.5-5.5,5.5C72-47.9,74.5-45.5,77.5-45.5z M60-61.2c-3.7,0-6.7,3-6.7,6.6
			c0,3.7,3,6.6,6.7,6.6c3.7,0,6.6-3,6.6-6.6C66.7-58.2,63.7-61.2,60-61.2z M40.6-58c-4.5,0-8.2,3.5-8.2,8c0,4.6,3.7,8.1,8.2,8.1
			c4.4,0,8.1-3.5,8.1-8.1C48.7-54.5,45.1-58,40.6-58z M26.7-42.7c-3.7,0-6.6,2.9-6.6,6.6s3,6.7,6.6,6.7s6.6-3,6.6-6.7
			S30.3-42.7,26.7-42.7z"/>
		<path d="M64-23.5c0,5.7-4.6,10.4-10.3,10.4c-5.7,0-10.3-4.7-10.3-10.4c0-5.7,4.7-10.4,10.3-10.4C59.4-33.8,64-29.2,64-23.5z"/>
	</g>
	<g id="Light-S" transform="matrix(1 0 0 1 1100.62 696)">
		<path d="M25.8-42.2c-3.4,0-6.2,2.7-6.2,6.1s2.8,6.2,6.2,6.2s6.1-2.8,6.1-6.2C31.9-39.6,29.2-42.2,25.8-42.2z M76.6-56
			c-2.8,0-5.1,2.2-5.1,5c0,2.8,2.2,5,5.1,5c2.8,0,5-2.2,5-5C81.6-53.7,79.3-56,76.6-56z M39.8-57.9c-4.5,0-8.1,3.5-8.1,7.9
			c0,4.5,3.6,8,8.1,8c4.3,0,7.9-3.5,7.9-8C47.7-54.4,44.1-57.9,39.8-57.9z M59.1-60.9c-3.5,0-6.3,2.8-6.3,6.3c0,3.5,2.9,6.3,6.3,6.3
			c3.5,0,6.2-2.8,6.2-6.3C65.4-58.1,62.7-60.9,59.1-60.9z M76.6-56c-2.8,0-5.1,2.2-5.1,5c0,2.8,2.2,5,5.1,5c2.8,0,5-2.2,5-5
			C81.6-53.7,79.3-56,76.6-56z M59.1-60.9c-3.5,0-6.3,2.8-6.3,6.3c0,3.5,2.9,6.3,6.3,6.3c3.5,0,6.2-2.8,6.2-6.3
			C65.4-58.1,62.7-60.9,59.1-60.9z M39.8-57.9c-4.5,0-8.1,3.5-8.1,7.9c0,4.5,3.6,8,8.1,8c4.3,0,7.9-3.5,7.9-8
			C47.7-54.4,44.1-57.9,39.8-57.9z M25.8-42.2c-3.4,0-6.2,2.7-6.2,6.1s2.8,6.2,6.2,6.2s6.1-2.8,6.1-6.2
			C31.9-39.6,29.2-42.2,25.8-42.2z M98.2-48.1c0-15.3-15.8-25.4-39.4-25.4C27.7-73.5,6.8-58.1,6.8-35C6.8-12.7,26.7,2.3,56,2.3
			c15.8,0,26.5-5.5,26.5-13.7c0-7.4-6.5-8.9-6.5-13.6C75.9-31.6,98.2-32.4,98.2-48.1z M76.7-11.9c0,5.1-8.1,8.4-20.7,8.4
			C29.8-3.5,12.6-16.1,12.6-35c0-19.7,18.3-32.8,46.2-32.8c20.3,0,33.6,7.9,33.6,19.6c0,13.6-22.4,11.7-22.4,23.2
			C70.1-18.5,76.7-16.6,76.7-11.9z M76.6-45.9c2.8,0,5-2.2,5-5c0-2.8-2.2-5-5-5c-2.8,0-5.1,2.2-5.1,5C71.5-48.1,73.8-45.9,76.6-45.9
			z M59.1-60.9c-3.5,0-6.3,2.8-6.3,6.3c0,3.5,2.9,6.3,6.3,6.3c3.5,0,6.2-2.8,6.2-6.3C65.4-58.1,62.7-60.9,59.1-60.9z M39.8-57.9
			c-4.5,0-8.1,3.5-8.1,7.9c0,4.5,3.6,8,8.1,8c4.3,0,7.9-3.5,7.9-8C47.7-54.4,44.1-57.9,39.8-57.9z M25.8-42.2
			c-3.4,0-6.2,2.7-6.2,6.1s2.8,6.2,6.2,6.2s6.1-2.8,6.1-6.2C31.9-39.6,29.2-42.2,25.8-42.2z"/>
		<path d="M63.6-23.5c0,6-4.9,10.8-10.8,10.8c-5.9,0-10.8-4.9-10.8-10.8c0-5.9,4.9-10.8,10.8-10.8C58.7-34.3,63.6-29.4,63.6-23.5z"
			/>
	</g>
	<g id="Thin-S" transform="matrix(1 0 0 1 805.079 696)">
		<path d="M24.6-41.6c-3,0-5.5,2.4-5.5,5.5c0,3,2.5,5.6,5.5,5.6s5.5-2.5,5.5-5.6C30.1-39.2,27.7-41.6,24.6-41.6z M75.5-55.4
			c-2.5,0-4.6,2-4.6,4.5s2,4.5,4.6,4.5c2.4,0,4.4-2,4.4-4.5C79.9-53.4,77.9-55.4,75.5-55.4z M38.6-57.7c-4.3,0-7.8,3.4-7.8,7.7
			c0,4.3,3.5,7.8,7.8,7.8c4.3,0,7.8-3.4,7.8-7.8C46.3-54.2,42.8-57.7,38.6-57.7z M58-60.4c-3.2,0-5.9,2.6-5.9,5.8
			c0,3.2,2.6,5.8,5.9,5.8c3.3,0,5.8-2.6,5.8-5.8C63.8-57.8,61.2-60.4,58-60.4z M75.5-55.4c-2.5,0-4.6,2-4.6,4.5s2,4.5,4.6,4.5
			c2.4,0,4.4-2,4.4-4.5C79.9-53.4,77.9-55.4,75.5-55.4z M58-60.4c-3.2,0-5.9,2.6-5.9,5.8c0,3.2,2.6,5.8,5.9,5.8
			c3.3,0,5.8-2.6,5.8-5.8C63.8-57.8,61.2-60.4,58-60.4z M38.6-57.7c-4.3,0-7.8,3.4-7.8,7.7c0,4.3,3.5,7.8,7.8,7.8
			c4.3,0,7.8-3.4,7.8-7.8C46.3-54.2,42.8-57.7,38.6-57.7z M24.6-41.6c-3,0-5.5,2.4-5.5,5.5c0,3,2.5,5.6,5.5,5.6s5.5-2.5,5.5-5.6
			C30.1-39.2,27.7-41.6,24.6-41.6z M95.9-48.1c0-14.6-15.3-24.2-38.2-24.2c-30.4,0-50.8,15-50.8,37.4c0,21.6,19.3,36.1,48,36.1
			c15.1,0,25.3-5.1,25.3-12.5c0-7.3-6.5-8.2-6.5-13.5C73.5-32.9,95.9-32.3,95.9-48.1z M76.7-11.9c0,5.9-8.4,9.6-21.9,9.6
			C28-2.3,10.3-15.4,10.3-35c0-20.4,18.8-34,47.4-34c20.9,0,34.8,8.3,34.8,20.8c0,14.3-22.4,12.2-22.4,23.3
			C70.1-18.5,76.7-17,76.7-11.9z M75.5-46.4c2.4,0,4.4-2,4.4-4.5c0-2.5-2-4.5-4.4-4.5c-2.5,0-4.6,2-4.6,4.5S72.9-46.4,75.5-46.4z
			 M58-60.4c-3.2,0-5.9,2.6-5.9,5.8c0,3.2,2.6,5.8,5.9,5.8c3.3,0,5.8-2.6,5.8-5.8C63.8-57.8,61.2-60.4,58-60.4z M38.6-57.7
			c-4.3,0-7.8,3.4-7.8,7.7c0,4.3,3.5,7.8,7.8,7.8c4.3,0,7.8-3.4,7.8-7.8C46.3-54.2,42.8-57.7,38.6-57.7z M24.6-41.6
			c-3,0-5.5,2.4-5.5,5.5c0,3,2.5,5.6,5.5,5.6s5.5-2.5,5.5-5.6C30.1-39.2,27.7-41.6,24.6-41.6z"/>
		<path d="M63-23.5c0,6.3-5.1,11.4-11.4,11.4s-11.4-5.1-11.4-11.4c0-6.2,5.1-11.4,11.4-11.4S63-29.7,63-23.5z"/>
	</g>
	<g id="Ultralight-S" transform="matrix(1 0 0 1 508.954 696)">
		<path d="M24-41.3c-2.8,0-5.2,2.3-5.2,5.1s2.4,5.2,5.2,5.2c2.8,0,5.1-2.4,5.1-5.2C29.1-39,26.9-41.3,24-41.3z M74.9-55.1
			c-2.4,0-4.3,1.9-4.3,4.2c0,2.3,1.9,4.2,4.3,4.2c2.3,0,4.1-1.8,4.1-4.2C79-53.3,77.1-55.1,74.9-55.1z M38-57.6
			c-4.3,0-7.8,3.4-7.8,7.6c0,4.2,3.5,7.7,7.8,7.7c4.2,0,7.6-3.4,7.6-7.7C45.6-54.2,42.2-57.6,38-57.6z M57.4-60.2
			c-3.1,0-5.6,2.5-5.6,5.6c0,3.1,2.5,5.6,5.6,5.6c3.1,0,5.6-2.4,5.6-5.6C62.9-57.7,60.5-60.2,57.4-60.2z M74.9-55.1
			c-2.4,0-4.3,1.9-4.3,4.2c0,2.3,1.9,4.2,4.3,4.2c2.3,0,4.1-1.8,4.1-4.2C79-53.3,77.1-55.1,74.9-55.1z M57.4-60.2
			c-3.1,0-5.6,2.5-5.6,5.6c0,3.1,2.5,5.6,5.6,5.6c3.1,0,5.6-2.4,5.6-5.6C62.9-57.7,60.5-60.2,57.4-60.2z M38-57.6
			c-4.3,0-7.8,3.4-7.8,7.6c0,4.2,3.5,7.7,7.8,7.7c4.2,0,7.6-3.4,7.6-7.7C45.6-54.2,42.2-57.6,38-57.6z M24-41.3
			c-2.8,0-5.2,2.3-5.2,5.1s2.4,5.2,5.2,5.2c2.8,0,5.1-2.4,5.1-5.2C29.1-39,26.9-41.3,24-41.3z M94.7-48.1c0-14.2-15-23.6-37.6-23.6
			C26.9-71.8,6.8-57,6.8-35c0,21.2,19,35.5,47.4,35.5c14.7,0,24.7-4.9,24.7-12c0-7.1-6.6-7.8-6.6-13.4
			C72.3-33.5,94.7-32.2,94.7-48.1z M76.7-11.9c0,6.3-8.5,10.2-22.5,10.2C27.1-1.7,9.1-15,9.1-35c0-20.8,19.1-34.6,48-34.6
			c21.2,0,35.4,8.5,35.4,21.4c0,14.6-22.4,12.5-22.4,23.5C70.1-18.5,76.7-17.2,76.7-11.9z M79-50.9c0-2.3-1.9-4.2-4.1-4.2
			c-2.4,0-4.3,1.9-4.3,4.2c0,2.3,1.9,4.2,4.3,4.2C77.2-46.7,79-48.5,79-50.9z M57.4-60.2c-3.1,0-5.6,2.5-5.6,5.6
			c0,3.1,2.5,5.6,5.6,5.6c3.1,0,5.6-2.4,5.6-5.6C62.9-57.7,60.5-60.2,57.4-60.2z M38-57.6c-4.3,0-7.8,3.4-7.8,7.6
			c0,4.2,3.5,7.7,7.8,7.7c4.2,0,7.6-3.4,7.6-7.7C45.6-54.2,42.2-57.6,38-57.6z M24-41.3c-2.8,0-5.2,2.3-5.2,5.1s2.4,5.2,5.2,5.2
			c2.8,0,5.1-2.4,5.1-5.2C29.1-39,26.9-41.3,24-41.3z"/>
		<path d="M62.7-23.5c0,6.4-5.2,11.7-11.7,11.7c-6.5,0-11.7-5.3-11.7-11.7c0-6.4,5.3-11.7,11.7-11.7C57.5-35.2,62.7-29.9,62.7-23.5z
			"/>
	</g>
</g>
</svg>
